<svg width="220" height="220" viewBox="0 0 220 220" fill="none" xmlns="http://www.w3.org/2000/svg">
<g clip-path="url(#clip0_378_48435)">
<path d="M110 220C170.751 220 220 170.751 220 110C220 49.2487 170.751 0 110 0C49.2487 0 0 49.2487 0 110C0 170.751 49.2487 220 110 220Z" fill="#FF914D"/>
<path fill-rule="evenodd" clip-rule="evenodd" d="M110 187.398C67.2516 187.398 32.6016 152.748 32.6016 110C32.6016 67.2509 67.2516 32.6009 110 32.6009C152.749 32.6009 187.399 67.2509 187.399 110C187.399 152.748 152.749 187.398 110 187.398ZM110 182.847C150.233 182.847 182.848 150.232 182.848 110C182.848 69.7672 150.233 37.1522 110 37.1522C69.7678 37.1522 37.1528 69.7672 37.1528 110C37.1528 150.232 69.7678 182.847 110 182.847Z" fill="white"/>
<path d="M96.8692 165.907C98.5742 165.206 105.243 160.063 111.685 154.529C119.669 147.738 127.349 140.597 134.702 133.127C141.756 126.073 144.375 123.042 144.809 121.474C146.335 115.967 129.649 55.4328 126.253 54.1334C124.184 53.3359 105.676 68.7291 89.2861 84.8441C79.6748 94.2903 77.0142 97.4322 76.808 99.4878C76.6705 101.076 77.2205 105.057 78.2448 109.773C82.3217 128.487 89.7398 154.343 93.4936 162.834C95.068 166.437 95.2467 166.595 96.8623 165.907H96.8692Z" fill="white"/>
</g>
<defs>
<clipPath id="clip0_378_48435">
<rect width="220" height="220" fill="white"/>
</clipPath>
</defs>
</svg>
