<svg width="220" height="220" viewBox="0 0 220 220" fill="none" xmlns="http://www.w3.org/2000/svg">
<g clip-path="url(#clip0_378_48418)">
<circle cx="110" cy="110" r="110" fill="white"/>
<path d="M68.0578 124.413L72.6574 89.8552L32.7617 62.1595L69.2138 74.5069L77.8226 61.2986L109.257 41.7935L178.546 79.9674L182.137 138.212L151.268 181.108L126.868 184.847L139.486 161.751V139.516L130.312 122.15L120.99 115.977L106.65 130.759V146.403L95.4584 156.881L81.2416 158.603L74.9448 162.169L64.6143 158.873L60.3099 143.377L68.0578 132.481V124.413Z" fill="white"/>
<path d="M131.762 61.8642C124.162 60.29 115.848 60.7082 115.848 60.7082C115.848 60.7082 113.118 73.3262 96.1953 76.6467C96.3183 76.6467 118.554 84.2471 131.762 61.8642Z" fill="#94A6C3"/>
<path d="M138.65 176.361C147.825 169.179 154.712 159.291 157.885 148.1C158.032 147.682 159.311 146.944 160.172 146.378C161.599 145.517 163.05 144.804 163.321 143.648C163.886 140.352 164.182 136.908 164.182 133.465C164.182 132.186 162.878 130.882 161.599 129.603C160.59 128.742 159.582 127.734 159.582 127.021C158.155 113.96 152.129 101.76 142.512 92.8806L141.504 93.889C150.826 102.645 156.852 114.55 158.155 127.168C158.303 128.324 159.434 129.456 160.59 130.612C161.599 131.473 162.755 132.776 162.755 133.342C162.755 136.638 162.46 139.934 161.894 143.23C161.747 143.795 160.467 144.386 159.459 144.952C158.032 145.665 156.729 146.378 156.458 147.534C153.015 159.734 145.119 170.36 134.641 177.247C136.51 173.238 142.389 160.177 145.537 153.56L144.972 132.333L126.746 114.698L116.415 116.124L105.076 134.498C105.076 134.498 110.389 141.237 102.912 149.133C95.6063 156.881 89.8507 158.603 89.8507 158.603L84.5379 155.725C86.112 153.708 89.285 150.707 91.7201 148.69C95.8769 145.247 100.034 144.951 100.034 141.237C100.206 133.465 91.8676 135.605 91.8676 135.605L88.8423 138.483L87.5632 149.108L81.2665 157.004L80.5532 156.856L70.2227 154.569C70.2227 154.569 76.544 151.273 77.5524 147.534C78.5609 143.943 75.5355 132.038 75.3879 131.325C75.5355 131.473 78.4133 133.908 79.6923 137.917C81.9798 131.596 85.0052 125.569 85.8661 125.004C86.727 124.438 98.3365 118.264 98.3365 118.264L94.4749 128.447L97.3527 126.873L104.24 109.951C104.24 109.951 110.979 106.655 115.997 106.655C125.024 106.507 138.38 95.4632 132.354 75.6629C134.075 76.3762 163.911 91.3064 169.076 120.576C172.938 143.082 160.172 164.161 138.65 176.361Z" fill="#94A6C3"/>
<path d="M104.511 65.0125C107.807 61.1262 106.528 55.3952 106.528 55.3952L96.9107 69.612C96.7631 69.612 100.33 69.7596 104.511 65.0125Z" fill="#1B314F"/>
<path d="M72.2163 142.639L73.3723 136.908C73.3723 136.908 68.6252 145.222 68.207 146.378C67.7643 147.681 68.5022 149.969 70.3469 149.821C72.2163 149.674 74.5037 146.944 74.5037 144.951C74.5037 142.369 72.2163 142.639 72.2163 142.639Z" fill="#1B314F"/>
<path d="M159.533 48.9606C159.533 48.9606 166.829 49.2605 174.399 50.1354C157.335 36.7128 141.169 32.7885 128.052 32.7885C109.988 32.7885 97.7449 40.2372 96.9954 40.6621L102.692 31.6137C102.692 31.6137 79.9555 29.4141 71.9353 53.4848C69.8865 48.3857 68.0126 40.937 68.0126 40.937C68.0126 40.937 56.1946 51.3102 61.7413 68.5071C48.1744 63.558 28.8109 56.6842 28.0613 56.5592C27.0369 56.4093 26.7371 56.8592 26.7371 56.8592C26.7371 56.8592 26.4373 57.2841 27.3118 58.034C28.9358 59.3087 59.5426 81.9297 66.2636 86.3039C64.8145 91.553 64.8145 94.0275 66.2636 96.5021C68.3124 99.8515 68.4373 101.601 68.1625 104.076C67.8627 106.55 65.2392 127.996 64.6646 130.621C64.0899 133.246 57.9686 142.569 58.2434 145.343C58.5432 148.118 62.316 159.916 65.689 161.241C68.1625 162.115 74.2839 164.015 78.3564 164.015C79.8056 164.015 81.1298 163.715 81.7045 163.14C84.178 160.966 84.9026 160.516 86.6515 160.516C86.8014 160.516 86.9513 160.516 87.0763 160.516C87.8008 160.516 88.6753 160.666 89.6997 160.666C92.0233 160.666 95.0965 160.216 97.2702 158.191C100.468 154.992 106.015 150.617 107.764 148.568C109.963 145.793 111.112 142.019 110.537 138.22C110.088 134.72 111.986 131.646 114.185 128.596C116.959 124.947 122.055 118.398 122.055 118.398C132.125 125.947 138.396 137.47 138.396 150.292C138.396 173.038 118.583 191.41 94.0971 191.41C90.2994 191.41 86.6765 190.985 83.0287 190.11C94.247 194.035 103.716 195.359 111.462 195.359C127.927 195.359 136.672 189.386 136.672 189.386C136.672 189.386 133.624 193.335 128.652 197.834C128.801 197.834 128.801 197.834 128.801 197.834C156.06 194.035 169.327 171.589 169.327 171.589C169.327 171.589 168.303 178.887 167.004 183.836C203.257 156.566 197.136 122.447 196.986 121.298C197.286 121.723 200.934 126.097 202.808 128.446C208.654 68.3571 159.533 48.9606 159.533 48.9606ZM103.716 144.918C103.142 145.643 100.668 147.843 98.9192 149.443C97.1703 151.042 95.2714 152.642 93.8223 154.117C93.2476 154.692 92.0733 154.992 90.3243 154.992C89.7497 154.992 89.15 154.992 88.7253 154.992C88.4255 154.992 88.1506 154.992 87.8508 154.992C87.551 154.992 87.4011 154.992 87.2761 154.992C86.8264 154.992 86.4017 154.992 85.9519 154.992C88.1506 152.067 94.5468 145.368 96.7455 143.919C99.369 142.169 100.693 140.419 99.0691 137.37C97.4701 134.295 93.2476 135.045 93.2476 135.045C93.2476 135.045 95.7211 134.02 97.9198 134.02C95.1465 133.296 91.6485 134.02 90.0495 135.62C88.3005 137.22 88.6004 142.919 87.8758 146.543C87.1512 150.342 84.6777 152.242 80.8799 155.742C78.8312 157.641 77.382 158.216 76.2077 158.216C73.7342 157.791 70.8109 157.041 68.7621 156.316C67.313 154.417 65.1143 148.143 64.5396 145.518C64.9644 144.069 66.7134 140.994 67.5878 139.244C69.3368 135.895 70.3612 133.995 70.661 132.246C71.2357 129.771 73.1345 114.449 73.8591 108.05C75.758 110.525 78.3814 114.624 77.7818 117.248C82.0043 111.274 78.9561 105.426 77.482 103.101C76.1827 100.776 74.4338 96.1022 75.8829 91.1531C77.3321 86.2039 82.5789 72.4814 82.5789 72.4814C82.5789 72.4814 84.3279 75.5558 86.8014 74.956C89.275 74.3811 109.238 44.3364 109.238 44.3364C109.238 44.3364 114.635 56.1343 108.938 64.7578C103.117 73.3562 97.4201 74.956 97.4201 74.956C97.4201 74.956 105.44 76.4057 112.861 71.0067C115.909 78.1554 118.832 85.5791 118.982 86.6039C118.533 87.6287 112.711 101.626 112.136 102.501C111.837 102.801 109.813 103.376 108.339 103.676C105.865 104.401 104.416 104.851 103.816 105.276C102.792 106.15 98.1197 118.973 95.946 125.247C93.3226 125.972 90.6991 127.447 88.8002 130.346C89.8246 129.621 93.0227 129.171 95.3713 128.896C97.4201 128.746 103.666 132.096 105.29 138.37C105.29 138.52 105.29 138.52 105.29 138.67C105.615 140.969 104.891 143.169 103.716 144.918ZM90.0245 146.668C91.3487 144.768 91.1988 141.569 91.3487 140.544C91.4986 139.519 91.7735 137.62 92.9478 137.345C94.1221 137.045 96.8954 137.495 96.8954 139.519C96.8954 141.419 94.8466 141.844 93.3975 143.169C92.3481 144.169 90.2993 146.368 90.0245 146.668ZM148.165 118.798C149.614 111.374 149.764 104.951 149.339 99.7015C155.011 107.275 158.509 116.474 159.533 125.947C159.683 127.122 160.832 128.271 162.007 129.446C163.031 130.321 164.205 131.496 164.205 132.221C164.205 135.57 163.906 138.92 163.331 142.294C163.181 142.719 161.882 143.469 160.857 144.044C159.408 144.768 158.084 145.493 157.809 146.668C154.611 157.891 147.74 167.814 138.571 174.813C152.113 160.666 158.659 137.32 148.165 118.798ZM138.995 176.113C148.465 168.814 155.76 158.616 158.959 147.093C159.108 146.668 160.408 145.918 161.282 145.343C162.731 144.618 164.205 143.744 164.48 142.569C165.055 139.219 165.355 135.72 165.355 132.221C165.355 130.921 164.031 129.596 162.731 128.296C162.007 127.422 160.832 126.397 160.832 125.672C159.658 115.024 155.436 104.976 148.89 96.6521C145.966 79.1552 134.323 73.7562 134.023 73.6062C134.323 74.0561 141.894 84.9792 136.647 97.8019C131.25 110.775 117.408 108.75 116.234 108.875C115.06 108.875 110.562 114.699 104.866 125.497C104.141 125.197 101.068 124.472 97.57 125.072C100.193 117.773 104.141 107.425 104.866 106.55C105.166 106.25 107.339 105.675 108.813 105.251C111.587 104.526 112.886 104.076 113.336 103.501C113.635 103.051 115.085 99.7015 116.534 96.2022C117.858 96.2022 121.206 95.9022 121.481 95.7522C121.781 95.4523 124.554 88.3286 124.554 87.4537C124.554 86.7288 118.857 72.5814 116.684 67.1823C117.708 66.0075 118.732 64.5578 119.732 62.9581C149.614 66.1825 172.95 91.553 172.95 122.297C172.95 145.918 159.108 166.49 138.995 176.113Z" fill="#1B314F"/>
<path d="M99.0524 99.0295C101.783 95.8811 100.356 90.0025 95.3137 88.9941C96.6173 85.9933 98.462 79.9671 98.462 79.9671C98.462 79.9671 83.8271 102.916 82.5481 103.358C81.2444 103.801 79.9654 98.7589 79.9654 98.7589C77.2352 109.237 84.565 110.664 85.4259 107.368C89.4351 106.335 96.3221 102.03 99.0524 99.0295Z" fill="#1B314F"/>
<path d="M86.5547 104.613L94.0075 91.8474C94.0075 91.8474 98.3119 94.0119 96.1474 97.4554C93.4417 101.465 86.5547 104.613 86.5547 104.613Z" fill="#FFD923"/>
<path d="M178.816 163.743C176.652 166.621 174.216 169.622 171.363 172.5C189.86 136.908 172.224 104.342 171.511 103.063C172.814 104.367 174.093 105.794 175.25 107.073C189.442 122.839 191.163 146.526 178.816 163.743Z" fill="#D82122"/>
<path d="M196.036 117.969C189.567 100.604 180.393 85.821 160.174 72.4897C140.669 59.5765 119.713 60.585 118.557 60.7326C118.409 60.7326 118.262 60.7326 118.262 60.7326C118.975 60.4374 119.688 60.2898 120.402 60.1668C124.854 58.7402 130.585 57.5842 136.34 56.8709C151.565 54.6818 166.914 59.8471 177.392 70.9155C177.539 71.0631 177.539 71.0631 177.687 71.2107C189.592 83.8287 195.766 99.5951 196.036 117.969Z" fill="#D82122"/>
<path d="M155.572 46.934C134.197 42.9247 120.423 44.9171 110.511 48.6557C110.216 47.4997 109.207 45.2122 108.346 43.3429C105.37 46.934 102.197 51.2384 100.205 53.9686C94.7445 57.7073 92.457 61.2984 92.457 61.2984C95.6054 50.5251 104.805 42.5066 115.996 40.4897C119.144 39.924 122.588 39.6288 126.327 39.6288C136.214 39.7764 146.102 42.2114 155.572 46.934Z" fill="#D82122"/>
<path d="M76.5208 74.4822C59.7459 73.9165 65.3294 54.3868 65.6245 53.2554C65.6245 53.4029 66.756 68.6036 76.5208 74.4822Z" fill="#D82122"/>
<path d="M93.0252 39.3336C80.112 47.0816 82.6946 65.5782 82.6946 65.5782C70.3472 46.811 92.0167 39.7764 93.0252 39.3336Z" fill="#D82122"/>
<path d="M71.7976 79.6473C72.6585 80.3606 73.5194 81.6643 72.5109 83.5336C71.9452 84.5421 71.0843 84.3945 69.7807 83.8288C68.0589 82.9679 57.7284 76.9417 48.4062 70.768C59.032 74.5067 69.7807 78.5159 71.5024 79.3768C71.5024 79.3768 71.65 79.5244 71.7976 79.6473Z" fill="white"/>
</g>
<defs>
<clipPath id="clip0_378_48418">
<rect width="220" height="220" fill="white"/>
</clipPath>
</defs>
</svg>
