<svg width="220" height="220" viewBox="0 0 220 220" fill="none" xmlns="http://www.w3.org/2000/svg">
<g clip-path="url(#clip0_378_48409)">
<path d="M110 220C170.751 220 220 170.751 220 110C220 49.2487 170.751 0 110 0C49.2487 0 0 49.2487 0 110C0 170.751 49.2487 220 110 220Z" fill="#F1CB60"/>
<path d="M104.934 170.885V180.943H110V165.894H99.9423V170.885H104.934ZM54.4917 115.679H49.5005V140.786H54.4917V130.728H59.5586V120.67H54.4917V115.679ZM115.067 145.778H120.059V160.827H115.067V145.778ZM110 160.827H115.067V165.894H110V160.827ZM59.5586 155.836H74.6836V170.885H59.5586V155.836ZM49.5005 105.621H54.5673V110.612H49.5005V105.621ZM79.7505 95.5625H84.8173V100.629H79.7505V95.5625ZM110 90.4956H115.067V100.554H110V90.4956ZM44.4336 75.4462H59.5586V90.4956H44.4336V75.4462ZM89.8086 170.885H94.8755V180.943H89.8086V170.885ZM94.8755 90.4956H89.8842V100.554H94.8755V95.5625H99.9423V85.5044H94.8755V90.4956ZM99.9423 80.5131H104.934V85.5044H99.9423V80.5131ZM99.9423 95.5625H104.934V100.554H99.9423V95.5625ZM74.6836 105.621H89.8086V110.612H74.6836V105.621Z" fill="white"/>
<path d="M94.875 85.5042V80.513H99.8662V75.4461H94.875V65.4636H79.75V70.4548H89.8081V75.4461H84.7413V80.4373H79.75V85.4286H74.7587V80.513H69.6163V75.5217H74.6831V80.4373H79.75V75.4461H74.7587V65.4636H34.375V100.629H74.7587V95.5623H79.75V85.5042H84.8169V90.4955H89.8838V85.5042H94.875ZM64.625 95.5623H39.4419V70.4548H64.625V95.5623ZM69.6163 95.5623V85.5042H74.6831V95.5623H69.6163ZM89.8081 80.4373V75.5217H94.875V80.4373H89.8081ZM130.192 135.719V130.728H120.058V120.67H115.067V125.661H110.076V120.67H115.067V105.545H105.009V110.612H99.8662V120.67H94.875V125.661H99.9419V120.67H104.933V135.719H94.875V130.728H89.8081V120.67H84.8169V115.679H74.6831V110.687H69.6163V105.696H59.5581V110.687H54.4913V115.679H59.5581V120.67H64.625V115.679H69.6919V120.67H64.625V125.661H69.6919V130.652H74.6831V125.661H79.75V120.67H84.7413V125.661H79.75V130.652H74.7587V140.71H84.8169V145.777H74.6831V140.786H69.6163V145.777H59.5581V140.786H54.5669V145.777H49.5V180.943H84.8169V150.769H89.8081V165.894H99.9419V160.902H105.009V150.769H99.9419V145.777H94.875V150.769H89.8838V140.71H105.009V145.702H110.076V135.719H120.058V140.786H125.125V135.719H130.192ZM79.75 175.876H54.5669V150.769H79.75V175.876ZM84.8169 135.719H79.75V130.728H84.8169V135.719ZM94.875 155.835H99.9419V160.827H94.875V155.835ZM130.192 65.4636H135.183V75.4461H130.192V65.4636ZM120.058 65.4636H115.067V80.513H110V85.5042H115.067V90.4955H120.058V100.554H125.125V90.4955H130.192V100.629H135.183V95.5623H140.25V85.5042H130.192V75.4461H120.058V65.4636Z" fill="white"/>
<path fill-rule="evenodd" clip-rule="evenodd" d="M165.433 120.67H155.375V125.661H150.308V130.728H145.317V115.679H150.308V110.612H145.317V115.603H140.25V120.67H135.183V110.612H130.192V120.67H125.125V125.737L130.192 125.661H135.183V135.72H150.308V140.786H135.183V145.778H130.192V150.769H125.125V155.836H130.192V160.827H125.125V165.894H130.192V170.885H135.183V175.876H130.192V180.943H170.5V150.769H165.433V175.876H140.25V150.769H155.375V130.728H160.442V135.72H170.5V125.737H165.509V120.67H170.5V105.621H165.433V120.67Z" fill="white"/>
<path d="M125.125 140.786H130.192V145.777H125.125V140.786ZM150.309 115.679H155.375V120.67H150.309V115.679ZM160.442 140.786H170.5V145.853H160.442V140.786ZM160.442 75.5219H175.567V90.5712H160.442V75.5219ZM140.25 95.5625H145.317V100.629H140.25V95.5625ZM120.059 105.621H125.125V110.612H120.059V105.621ZM155.375 105.621H160.442V110.612H155.375V105.621ZM145.317 155.836H160.442V170.885H145.317V155.836ZM140.25 105.621H145.317V110.612H140.25V105.621ZM104.934 75.4462H110V80.5131H104.934V75.4462Z" fill="white"/>
<path d="M140.249 65.4639V70.4551H150.307V75.4464H145.24V80.4376H140.249V75.4464H135.182V80.5133H140.249V85.4289H145.316V90.4201H150.383V100.478H185.624V65.4639H140.249ZM180.557 95.5626H155.374V70.4551H180.557V95.5626ZM67.7244 56.6158C71.2031 58.9601 75.1356 59.4139 78.2363 59.5651C80.8831 59.7164 85.345 59.7164 90.0338 59.7164C98.7306 59.7164 108.94 59.8676 109.999 59.8676C112.797 59.9433 121.343 59.9433 128.905 59.9433C133.594 59.9433 137.98 59.8676 140.703 59.792C143.803 59.6408 147.736 59.1114 151.214 56.8426C155.601 53.8933 157.794 49.0533 157.794 42.4739C157.794 37.1801 155.601 34.0039 153.786 32.1889C148.87 27.4245 141.308 27.727 138.812 27.8026H138.509C136.997 27.8026 131.552 28.6345 125.124 32.2645C119.452 35.4408 114.536 39.9783 110.528 45.6501L110.074 46.7845L109.696 46.1795C105.461 39.827 99.9406 35.5164 93.815 32.0376C87.4625 28.4076 82.0175 27.6514 80.505 27.6514H80.2025C77.7069 27.5758 70.1444 27.2733 65.2288 32.0376C61.9013 35.2139 61.2206 39.3733 61.2206 42.3226C61.145 48.8264 63.3381 53.6664 67.7244 56.6158ZM128.829 39.6758C134.199 36.5751 138.283 36.1214 138.585 36.1214H139.114C143.425 35.9701 146.45 36.6508 148.038 38.1633C149.021 39.1464 149.551 40.5076 149.551 42.4739C149.551 49.6583 146.148 51.2464 140.324 51.5489C135.409 51.7758 123.989 51.7001 116.578 51.6245C119.627 46.7029 123.833 42.601 128.829 39.6758ZM70.9006 37.9364C72.3375 36.5751 74.9088 35.8945 78.6144 35.8945H80.4294C80.7319 35.8945 84.8156 36.3483 90.185 39.4489C95.025 42.247 99.1844 46.2551 102.512 51.3976C95.025 51.4733 83.6056 51.5489 78.69 51.322C72.8669 51.0195 69.4638 49.4314 69.4638 42.247C69.4638 40.2808 69.9175 38.9195 70.9006 37.9364ZM120.057 170.885H115.066V180.943H120.133V170.885H125.124V165.894H120.057V170.885Z" fill="white"/>
</g>
<defs>
<clipPath id="clip0_378_48409">
<rect width="220" height="220" fill="white"/>
</clipPath>
</defs>
</svg>
