<svg width="220" height="220" viewBox="0 0 220 220" fill="none" xmlns="http://www.w3.org/2000/svg">
<g clip-path="url(#clip0_378_48405)">
<path d="M110 220C170.751 220 220 170.751 220 110C220 49.2487 170.751 0 110 0C49.2487 0 0 49.2487 0 110C0 170.751 49.2487 220 110 220Z" fill="#F5EB16"/>
<path d="M109.553 27.5C64.2263 27.5069 27.5 64.2606 27.5 109.587C27.5069 154.907 64.2606 191.648 109.587 191.641C154.907 191.627 191.648 154.88 191.641 109.553C191.639 98.7754 189.514 88.1035 185.388 78.147C181.261 68.1904 175.214 59.1441 167.592 51.5247C159.969 43.9053 150.92 37.8619 140.962 33.7397C131.004 29.6176 120.331 27.4973 109.553 27.5ZM76.23 63.4562C76.2354 63.2332 76.3288 63.0213 76.4897 62.8667C76.6507 62.7122 76.8663 62.6276 77.0894 62.6313H111.279C118.451 62.4968 125.562 63.9722 132.089 66.9488C133.327 67.5538 134.544 68.2275 135.719 68.9563L113.465 81.6956H101.853C101.742 81.6983 101.633 81.7228 101.531 81.7678C101.429 81.8128 101.338 81.8774 101.261 81.9578C101.185 82.0383 101.125 82.133 101.085 82.2367C101.045 82.3403 101.025 82.4508 101.028 82.5619V88.9694L76.23 103.311V63.4562ZM67.0244 135.493L52.1606 120.478L101.111 92.235V110.536C101.116 110.759 101.209 110.971 101.37 111.126C101.531 111.28 101.747 111.365 101.97 111.361H108.962L67.0725 135.493H67.0244ZM140.326 121.536C133.148 127.531 123.296 130.529 110.77 130.529H101.853C101.629 130.529 101.414 130.618 101.255 130.776C101.097 130.935 101.007 131.15 101.007 131.374V149.854L88.5638 157.018L76.945 163.735L76.2094 164.147V133.519L114.73 111.354C118.022 111.254 121.176 110.006 123.647 107.827C124.525 106.956 125.262 105.955 125.833 104.857L150.432 90.6194C150.844 92.8744 151.051 95.1569 151.044 97.4531C151.071 107.511 147.496 115.534 140.319 121.536H140.326ZM127.126 100.781C127.291 99.7288 127.373 98.6562 127.38 97.5906C127.588 93.4035 126.205 89.2925 123.509 86.0819C121.998 84.4051 120.062 83.1676 117.906 82.5L152.096 62.7619L167.097 77.77L127.126 100.781Z" fill="white"/>
</g>
<defs>
<clipPath id="clip0_378_48405">
<rect width="220" height="220" fill="white"/>
</clipPath>
</defs>
</svg>
