<svg width="220" height="220" viewBox="0 0 220 220" fill="none" xmlns="http://www.w3.org/2000/svg">
<g clip-path="url(#clip0_378_48332)">
<g opacity="0.98">
<path opacity="0.98" d="M110 220C88.2441 220 66.9767 213.549 48.8873 201.462C30.7979 189.375 16.6989 172.195 8.3733 152.095C0.0476609 131.995 -2.13071 109.878 2.11367 88.5401C6.35804 67.2022 16.8345 47.6021 32.2183 32.2183C47.6021 16.8345 67.2022 6.35804 88.5401 2.11366C109.878 -2.13071 131.995 0.0476533 152.095 8.37329C172.195 16.6989 189.375 30.7979 201.462 48.8873C213.549 66.9767 220 88.2441 220 110C220 139.174 208.411 167.153 187.782 187.782C167.153 208.411 139.174 220 110 220Z" fill="#112451"/>
</g>
<path d="M114.469 125.466C114.469 125.466 100.032 133.029 100.719 144.923C101.407 156.816 117.357 174.898 126.982 171.323C136.607 167.748 163.419 152.21 166.169 136.948C168.919 121.685 142.244 114.123 142.244 114.123L114.469 125.466Z" fill="#2844AD"/>
<path d="M151.73 60.6385C142.913 53.462 132.256 48.9089 120.975 47.4987C109.693 46.0886 98.2432 47.8783 87.9305 52.6635L72.3242 74.9385C73.0713 77.4435 74.4304 79.7231 76.2788 81.5715C78.1272 83.4199 80.4067 84.779 82.9117 85.526C91.8492 88.4823 130.555 73.5635 130.555 73.5635L151.73 60.6385Z" fill="#2844AD"/>
<path d="M50.0469 82.499C50.0469 82.499 63.1094 58.5052 80.5719 52.9365C98.0344 47.3677 95.5594 64.8302 80.5719 71.9115C65.5844 78.9927 56.1656 83.049 50.0469 82.499Z" fill="#5493F7"/>
<path d="M47.5744 89.9255C47.5744 89.9255 27.4995 146.232 82.4994 171.875C82.4994 171.875 86.7619 149.394 78.9932 135.163C73.2291 123.777 66.269 113.037 58.2307 103.125C54.3963 98.961 50.8368 94.5517 47.5744 89.9255Z" fill="#5493F7"/>
<path d="M168.025 144.375C168.025 144.375 153.656 171.875 132.894 171.875C132.363 171.708 131.873 171.432 131.455 171.065C131.038 170.698 130.702 170.247 130.469 169.742C130.235 169.237 130.111 168.689 130.102 168.132C130.093 167.576 130.201 167.024 130.419 166.512C131.725 162.525 144.719 148.362 168.025 144.375Z" fill="#5493F7"/>
<path d="M152.213 61.0526C160.244 67.1838 166.526 75.315 170.431 84.6338C176.795 99.9012 177.718 116.892 173.044 132.759C169.538 142.04 164.106 139.634 152.419 137.159C140.731 134.684 96.2502 122.171 84.7689 106.909C73.2877 91.6463 82.1564 79.4088 97.0064 71.5026C111.856 63.5963 142.381 55.0026 152.213 61.0526Z" fill="#5493F7"/>
<path d="M90.4062 155.996L89.375 131.383L122.65 129.389C122.65 130.489 122.65 131.589 122.65 132.689C122.65 133.789 122.65 135.027 122.65 136.196C122.65 137.364 122.65 138.602 122.65 139.771C122.65 140.939 122.65 142.108 122.65 143.277C122.65 144.446 122.65 145.683 122.65 146.852C122.65 148.021 122.65 149.258 122.65 150.427C122.65 151.596 122.65 152.627 122.65 153.658C122.65 153.658 122.65 154.689 122.65 153.658L90.3375 155.583C90.3375 155.583 90.6125 156.133 90.4062 155.996Z" fill="#3C3B6E"/>
<path d="M174.762 168.711C174.762 169.811 174.762 170.98 174.762 172.08C174.762 172.08 174.762 173.18 174.762 172.08L91.5742 177.099C91.5742 177.099 91.5742 174.899 91.5742 173.799H92.1242L174.624 168.849C174.624 168.849 174.555 168.574 174.762 168.711Z" fill="#B12234"/>
<path d="M174.761 168.714H174.417L91.3672 173.733V170.158H91.9172L174.417 165.208C174.595 165.145 174.789 165.145 174.967 165.208L174.761 168.714Z" fill="#FEFEFE"/>
<path d="M174.353 158.125V161.7H173.941L91.4406 166.719C91.2627 166.782 91.0686 166.782 90.8906 166.719V163.144H91.5094L174.009 158.125C174.009 158.125 174.216 158.125 174.353 158.125Z" fill="#FEFEFE"/>
<path d="M174.348 158.126L91.1602 163.145V159.639L173.66 154.62C173.66 154.62 174.073 154.62 174.279 154.62L174.348 158.126Z" fill="#B12234"/>
<path d="M174.283 154.48H173.939L90.8203 159.498V155.923L123.752 153.998H124.577L173.733 151.042C173.733 151.042 174.077 151.042 174.283 151.042V154.48Z" fill="#FEFEFE"/>
<path d="M90.8203 166.649L173.939 161.63V165.136L90.8203 170.155V166.649Z" fill="#B12234"/>
<path d="M123.199 132.687V129.112L173.18 126.087C173.18 126.087 173.18 128.355 173.18 129.455H172.562L123.749 132.687C123.749 132.687 123.337 132.824 123.199 132.687Z" fill="#B12234"/>
<path d="M123.199 132.69L129.249 132.277L173.043 129.665V133.171L123.749 136.265C123.674 136.332 123.576 136.37 123.474 136.37C123.373 136.37 123.275 136.332 123.199 136.265V132.69Z" fill="#FEFEFE"/>
<path d="M123.75 150.425V146.85H124.3L173.388 143.825C173.388 143.825 173.8 143.825 173.938 143.825V147.4L124.712 150.356C124.712 150.356 123.75 150.562 123.75 150.425Z" fill="#FEFEFE"/>
<path d="M173.869 143.826L123.75 146.851V143.276H124.3L173.388 140.32C173.388 140.32 173.8 140.32 173.938 140.32L173.869 143.826Z" fill="#B12234"/>
<path d="M173.731 140.252L163.694 140.871L123.75 143.277V139.771L173.044 136.815H173.525L173.731 140.252Z" fill="#FEFEFE"/>
<path d="M123.75 150.428L173.594 147.403V150.909L123.888 153.865L123.75 150.428Z" fill="#B12234"/>
<path d="M173.663 136.676H173.319L123.75 139.769V136.194L139.15 135.301L173.525 133.169L173.663 136.676Z" fill="#B12234"/>
<path d="M114.538 148.225V147.4C114.538 147.4 114.538 147.4 114.538 147.056C114.324 146.965 114.136 146.823 113.988 146.644H114.745V145.819C114.745 145.819 114.745 146.231 114.745 146.437C114.745 146.644 114.745 146.781 115.226 146.437H115.776L115.226 146.919C115.208 147.17 115.208 147.423 115.226 147.675L114.538 147.262V148.225Z" fill="#FDFDFD"/>
<path d="M97.3492 147.674H97.968C97.968 147.674 97.968 147.674 98.3117 147.674C98.2589 147.448 98.2589 147.213 98.3117 146.987C98.3117 146.987 98.3117 147.468 98.3117 147.743C98.3117 147.743 98.3117 148.018 98.3117 147.743H99.1367C99.1367 147.743 99.1367 148.087 98.5867 148.156C98.0367 148.224 98.5867 148.156 98.5867 148.706C98.6069 148.911 98.6069 149.119 98.5867 149.324L97.968 148.912C97.7932 149.109 97.5834 149.272 97.3492 149.393C97.3801 149.142 97.3801 148.888 97.3492 148.637C97.3492 148.637 97.3492 148.637 97.3492 148.293L96.7305 147.881L97.3492 147.674Z" fill="#FDFDFD"/>
<path d="M107.454 141.145L106.835 140.733L106.216 141.283C106.2 141.008 106.2 140.732 106.216 140.458L105.598 139.976H106.354C106.334 139.702 106.334 139.426 106.354 139.151V139.77C106.354 139.77 106.354 139.77 106.766 139.77H107.385L106.835 140.251C106.81 140.305 106.798 140.364 106.798 140.423C106.798 140.483 106.81 140.541 106.835 140.595C107.071 140.742 107.28 140.928 107.454 141.145Z" fill="#FDFDFD"/>
<path d="M115.98 131.654L115.499 131.998C115.457 132.03 115.422 132.071 115.398 132.119C115.374 132.167 115.362 132.219 115.362 132.273C115.362 132.326 115.374 132.379 115.398 132.426C115.422 132.474 115.457 132.516 115.499 132.548V133.166L114.812 132.754L114.193 133.304V132.479L113.574 131.998H114.262C114.262 131.998 114.262 131.998 114.605 131.998C114.573 131.77 114.573 131.538 114.605 131.31C114.605 131.31 114.605 131.31 114.605 131.723C114.605 132.135 114.605 132.204 115.224 132.135H115.705L115.98 131.654Z" fill="#FDFDFD"/>
<path d="M94.2562 140.385H95.0125V139.629C95.0409 139.88 95.0409 140.134 95.0125 140.385H95.7688C95.6164 140.56 95.429 140.7 95.2188 140.797V141.279V141.966L94.6 141.554C94.6 141.554 94.6 141.554 94.2562 141.554L93.6375 142.035C93.5977 141.808 93.5977 141.575 93.6375 141.347C93.6375 141.347 93.6375 141.004 93.6375 140.866H93.1562L94.2562 140.385Z" fill="#FDFDFD"/>
<path d="M113.438 139.288L112.819 139.77C112.869 140.019 112.869 140.276 112.819 140.526L112.2 140.113C112.2 140.113 112.2 140.113 111.856 140.113C111.682 140.33 111.473 140.516 111.238 140.663C111.238 140.32 111.238 140.045 111.238 139.838C111.238 139.632 111.238 139.838 111.238 139.838C111.024 139.716 110.837 139.552 110.688 139.357H111.375C111.348 139.106 111.348 138.852 111.375 138.601V139.151C111.375 139.563 111.375 139.563 111.856 139.495H112.406L113.438 139.288Z" fill="#FDFDFD"/>
<path d="M120.792 145.268C120.81 145.52 120.81 145.773 120.792 146.024H121.548L120.998 146.437C120.998 146.437 120.998 146.437 120.998 146.849C121.067 147.073 121.067 147.313 120.998 147.537L120.38 147.124C120.219 147.336 120.006 147.502 119.761 147.606V146.918C119.761 146.918 119.761 146.918 119.761 146.506C119.547 146.414 119.358 146.273 119.211 146.093H119.967L120.792 145.268Z" fill="#FDFDFE"/>
<path d="M103.127 147.333H103.814C103.783 147.082 103.783 146.828 103.814 146.577V147.264H104.227H104.845L104.295 147.746C104.295 147.746 104.295 147.746 104.295 148.089C104.312 148.341 104.312 148.594 104.295 148.846L103.677 148.433L103.058 148.983V148.158C103.083 148.104 103.095 148.046 103.095 147.986C103.095 147.927 103.083 147.868 103.058 147.814H102.508L103.127 147.333Z" fill="#FDFDFE"/>
<path d="M92.4008 132.069C92.3893 132.298 92.3893 132.527 92.4008 132.756H93.0883L92.607 133.169C92.607 133.169 92.607 133.169 92.607 133.65C92.6185 133.879 92.6185 134.108 92.607 134.337L91.9195 133.856L91.3008 134.269V133.581L90.6133 133.169H91.3695C91.3695 133.169 91.3695 133.169 91.7133 133.169C91.8761 132.764 92.1088 132.392 92.4008 132.069Z" fill="#FDFDFD"/>
<path d="M104.364 133.857L103.745 133.445L103.127 133.995C103.11 133.72 103.11 133.445 103.127 133.17L102.508 132.689H103.127V132.001C103.155 132.252 103.155 132.506 103.127 132.757H103.883L103.264 133.239C103.264 133.239 103.264 133.239 103.264 133.582C103.65 133.566 104.032 133.661 104.364 133.857Z" fill="#FDFDFD"/>
<path d="M109.107 131.035C109.125 131.287 109.125 131.539 109.107 131.791H109.863L109.245 132.341C109.245 132.341 109.245 132.822 109.245 133.097L108.695 132.685C108.695 132.685 108.351 132.685 108.213 132.685L107.732 133.097C107.694 132.87 107.694 132.638 107.732 132.41V131.997L107.113 131.585H107.938L109.107 131.035Z" fill="#FDFDFD"/>
<path d="M119.898 131.656C119.845 131.407 119.845 131.149 119.898 130.9C119.86 131.151 119.86 131.406 119.898 131.656Z" fill="#FDFDFD"/>
<path d="M108.97 148.429V147.741L108.283 147.26H109.039V146.504C109.039 146.504 109.039 147.054 109.039 147.26C109.039 147.26 109.039 147.466 109.039 147.26H109.864L109.245 147.81C109.227 148.062 109.227 148.314 109.245 148.566L108.558 148.154L108.008 148.635L108.97 148.429Z" fill="#FDFDFD"/>
<path d="M100.995 139.011C100.995 139.63 100.995 139.63 101.888 139.63L101.338 140.111C101.377 140.361 101.377 140.617 101.338 140.867L100.72 140.455C100.72 140.455 100.72 140.455 100.376 140.455L99.8258 140.936C99.787 140.685 99.787 140.43 99.8258 140.18L99.207 139.698H99.8945L100.995 139.011Z" fill="#FDFDFD"/>
<path d="M91.8516 152.968H92.6766V152.143C92.6651 152.372 92.6651 152.602 92.6766 152.831H93.4328L92.8141 153.381C92.7958 153.632 92.7958 153.885 92.8141 154.137L92.1266 153.724L91.5078 154.206V153.449L91.8516 152.968Z" fill="#FDFDFE"/>
<path d="M109.172 153.45C109.172 153.45 109.172 152.969 109.172 152.762C109.172 152.556 109.172 152.762 109.172 152.762L108.484 152.281H109.309L109.997 151.25C110.025 151.501 110.025 151.755 109.997 152.006C110.221 151.937 110.46 151.937 110.684 152.006L110.066 152.488C110.094 152.739 110.094 152.992 110.066 153.244L109.997 152.969C109.997 152.969 109.997 152.969 109.653 152.969L109.103 153.381L109.172 153.45Z" fill="#FDFDFE"/>
<path d="M120.999 150.216C120.999 150.216 120.999 150.766 120.999 151.041C120.999 151.041 120.999 151.316 120.999 151.041H121.824L121.205 151.591C121.205 151.591 121.205 151.591 121.205 151.935V152.691L120.518 152.21L119.899 152.76V151.935L119.762 151.248H120.518C120.637 150.886 120.799 150.54 120.999 150.216Z" fill="#FDFDFE"/>
<path d="M99.482 137.499C99.2464 137.647 99.0372 137.833 98.8633 138.049C98.8917 138.301 98.8917 138.554 98.8633 138.806L98.1758 138.393L97.4883 138.943C97.5119 138.669 97.5119 138.393 97.4883 138.118L96.8008 137.637C97.0517 137.603 97.3061 137.603 97.557 137.637C97.557 137.637 97.557 137.637 97.9008 137.293C97.8686 137.088 97.8686 136.879 97.9008 136.674C97.9561 136.9 97.9561 137.136 97.9008 137.362L99.482 137.499Z" fill="#FEFEFE"/>
<path d="M115.775 138.185L115.088 137.703L114.469 138.253V137.428L113.781 136.947H114.331C114.744 136.947 114.744 136.947 114.881 136.466V135.916V136.741H115.638L115.019 137.291L115.775 138.185Z" fill="#FEFEFE"/>
<path d="M96.2492 146.78V146.368C96.2492 146.368 96.2492 146.368 95.8367 146.368L95.2867 146.849C95.2867 146.505 95.2867 146.299 95.2867 146.024C95.2867 145.749 95.2867 146.024 95.2867 146.024L94.668 145.543H95.4242C95.3623 145.271 95.3623 144.989 95.4242 144.718C95.4242 144.718 95.4242 145.268 95.4242 145.474H96.2492L95.5617 146.024C95.8067 146.261 96.0363 146.514 96.2492 146.78Z" fill="#FEFEFE"/>
<path d="M111.099 144.374H111.924V143.549C111.942 143.801 111.942 144.054 111.924 144.306H112.68L112.062 144.856C112.042 145.13 112.042 145.406 112.062 145.681L111.443 145.199C111.443 145.199 111.443 145.199 111.099 145.199L110.48 145.681V144.924C110.48 144.924 110.48 144.924 110.48 144.581L111.099 144.374Z" fill="#FEFEFE"/>
<path d="M102.438 137.498H103.125C103.125 137.498 103.469 137.498 103.538 137.154V136.466C103.538 136.466 103.538 137.016 103.538 137.291C103.538 137.291 103.538 137.566 103.538 137.291H104.363L103.744 137.841C103.772 138.093 103.772 138.346 103.744 138.598L103.125 138.185C102.951 138.402 102.742 138.588 102.506 138.735C102.506 138.391 102.506 138.185 102.506 137.91C102.506 137.635 102.506 137.91 102.506 137.91L102.438 137.498Z" fill="#FEFEFE"/>
<path d="M97.4203 152.624H98.1078C98.1078 152.624 98.4516 152.624 98.5203 152.28C98.4942 152.052 98.4942 151.821 98.5203 151.593C98.5386 151.844 98.5386 152.097 98.5203 152.349H99.2766L98.6578 152.899C98.6395 153.151 98.6395 153.403 98.6578 153.655L97.9703 153.243L97.3516 153.793V153.036C97.3516 153.036 97.3516 153.036 97.3516 152.624H97.4203Z" fill="#FDFDFE"/>
<path d="M116.255 153.109L115.637 152.628L114.949 153.178C114.949 153.178 114.949 152.628 114.949 152.421C114.949 152.215 114.949 152.421 114.949 152.078L114.262 151.596H115.087C115.026 151.348 115.026 151.088 115.087 150.84V151.321C115.087 151.734 115.087 151.734 115.705 151.734H116.874L116.255 152.284C116.255 152.284 116.255 152.284 116.255 152.628C116.262 152.788 116.262 152.948 116.255 153.109Z" fill="#FDFDFE"/>
<path d="M99.9633 144.996H100.651C100.651 144.996 100.651 144.996 100.651 144.653V143.965C100.651 143.965 100.651 144.515 100.651 144.79C100.651 144.79 100.651 145.065 100.651 144.79H101.476L100.857 145.34C100.839 145.592 100.839 145.845 100.857 146.096L100.17 145.684C99.9765 145.861 99.7696 146.021 99.5508 146.165V145.409L99.9633 144.996Z" fill="#FEFEFE"/>
<path d="M105.529 144.374H106.354C106.354 144.374 106.354 143.893 106.354 143.549V144.306H107.11L106.491 144.856V145.543L105.873 145.199H105.46L104.91 145.681C104.91 145.337 104.91 145.131 104.91 144.856C104.91 144.581 104.91 144.856 104.91 144.856L105.529 144.374Z" fill="#FEFEFE"/>
<path d="M118.8 145.474L118.181 144.993C118.181 144.993 118.181 144.993 117.837 144.993L117.219 145.474C117.202 145.223 117.202 144.97 117.219 144.718L116.875 144.374H117.7C117.7 144.374 117.7 143.893 117.7 143.549V144.168C117.7 144.168 117.7 144.581 118.113 144.512H118.731L118.181 144.993C118.181 144.993 118.181 144.993 118.181 145.406L118.8 145.474Z" fill="#FEFEFE"/>
<path d="M110.62 136.881L110.001 137.5V138.325L109.382 137.844H108.97L108.42 138.325C108.38 138.075 108.38 137.819 108.42 137.569C108.42 137.569 108.42 137.569 108.42 137.225L107.801 136.813H108.488V136.056C108.488 136.056 108.488 136.606 108.488 136.813L110.62 136.881Z" fill="#FEFEFE"/>
<path d="M91.918 139.561C91.8856 139.31 91.8856 139.056 91.918 138.805L91.2305 138.323H91.8492C92.193 138.323 92.193 138.323 92.3305 137.842C92.3125 137.659 92.3125 137.475 92.3305 137.292V138.048H93.1555L92.468 138.598C92.5067 138.849 92.5067 139.104 92.468 139.355L91.8492 138.942C91.8492 138.942 91.8492 138.942 91.5055 138.942C91.6833 139.118 91.8236 139.329 91.918 139.561Z" fill="#FEFEFE"/>
<path d="M108.212 149.529C108.212 149.529 107.593 149.873 107.524 150.148C107.503 150.446 107.503 150.744 107.524 151.042L106.905 150.561C106.905 150.561 106.905 150.561 106.562 150.561L105.943 151.042C105.943 151.042 105.943 150.492 105.943 150.217C105.943 149.942 105.943 150.217 105.943 150.217L105.324 149.804H106.08V149.048C106.108 149.277 106.108 149.507 106.08 149.736C106.08 149.736 106.08 149.736 106.424 149.736L108.212 149.529Z" fill="#FEFEFE"/>
<path d="M97.0742 142.723H97.8305V141.898C97.8501 142.173 97.8501 142.448 97.8305 142.723H98.6555L98.0367 143.273C98.0171 143.548 98.0171 143.823 98.0367 144.098L97.418 143.617C97.418 143.617 97.418 143.617 97.0742 143.617L97.6242 144.373V143.548L97.0742 142.723Z" fill="#FEFEFE"/>
<path d="M102.094 134.957L101.544 135.438C101.544 135.438 101.544 135.438 101.544 135.782V136.538L100.856 136.057L100.306 136.538V135.713L99.6875 135.301H100.444C100.444 135.301 100.444 134.819 100.444 134.476C100.444 134.132 100.444 135.026 100.444 135.301C100.444 135.301 100.444 135.576 100.444 135.301H101.2L102.094 134.957Z" fill="#FEFEFE"/>
<path d="M118.8 133.992L118.319 134.404C118.319 134.404 118.319 134.404 118.319 134.817C118.357 135.044 118.357 135.277 118.319 135.504L117.7 135.092C117.7 135.092 117.7 135.092 117.356 135.092L116.738 135.642C116.721 135.367 116.721 135.091 116.738 134.817V134.473L116.188 134.06H116.875V133.304C116.903 133.555 116.903 133.809 116.875 134.06H117.563L118.8 133.992Z" fill="#FEFEFE"/>
<path d="M92.0563 144.374C92.0563 144.03 92.0563 143.824 92.0563 143.549C92.0563 143.274 92.0563 143.549 92.0563 143.549L91.4375 143.136H92.1937C92.1937 143.136 92.1937 142.655 92.1937 142.311C92.1937 141.968 92.1937 142.861 92.1937 143.068C92.1937 143.068 92.1937 143.274 92.1937 143.068H92.8812C92.8812 143.068 92.8812 143.068 92.5375 143.48C92.1937 143.893 92.5375 143.48 92.5375 144.168V144.718L91.85 144.236L92.0563 144.374Z" fill="#FEFEFE"/>
<path d="M108.763 143.549V142.793C108.763 142.793 108.763 142.793 108.763 142.449C108.528 142.36 108.317 142.219 108.145 142.036H108.832C108.849 141.785 108.849 141.532 108.832 141.28V142.105H109.657L108.97 142.655C108.97 142.655 108.97 143.136 108.97 143.48L110.001 142.999L108.763 143.549Z" fill="#FEFEFE"/>
<path d="M116.876 148.983H117.495V148.296C117.495 148.296 117.495 148.777 117.495 149.052C117.495 149.052 117.495 149.327 117.495 149.052H118.182C118.078 149.244 117.906 149.39 117.701 149.464C117.701 149.464 117.701 149.464 117.701 149.946C117.712 150.175 117.712 150.404 117.701 150.633L117.151 150.289C117.151 150.289 116.807 150.289 116.601 150.289L116.12 150.702C116.08 150.474 116.08 150.242 116.12 150.014V149.602L116.876 149.052V148.983Z" fill="#FEFEFE"/>
<path d="M113.781 149.19L113.231 149.671C113.231 149.671 113.231 149.671 113.231 150.015C113.213 150.267 113.213 150.519 113.231 150.771L112.612 150.359C112.612 150.359 112.613 150.359 112.2 150.359L111.65 150.84V150.015C111.424 149.91 111.215 149.771 111.031 149.602H111.788C111.765 149.351 111.765 149.098 111.788 148.846C111.818 149.074 111.818 149.305 111.788 149.534H112.2L113.781 149.19Z" fill="#FEFEFE"/>
<path d="M102.711 149.808L102.092 150.358C102.092 150.358 102.092 150.358 102.092 150.701C102.142 150.951 102.142 151.208 102.092 151.458L101.68 151.251C101.68 151.251 101.68 151.251 101.267 151.251L100.648 151.733V150.976C100.648 150.976 100.648 150.976 100.648 150.633L99.9609 150.22H100.717C100.734 149.968 100.734 149.716 100.717 149.464C100.746 149.715 100.746 149.969 100.717 150.22C100.717 150.22 100.717 150.22 101.061 150.22L102.711 149.808Z" fill="#FEFEFE"/>
<path d="M95.7703 149.256C95.79 149.531 95.79 149.806 95.7703 150.081H96.5266L95.9078 150.631C95.9277 150.906 95.9277 151.181 95.9078 151.456L96.2516 151.25C96.0777 151.467 95.8685 151.652 95.6328 151.8C95.6328 151.456 95.6328 151.25 95.6328 150.975C95.6328 150.7 95.6328 150.975 95.6328 150.975L94.9453 150.562H95.7703C95.7703 150.562 95.7016 149.6 95.7703 149.256Z" fill="#FEFEFE"/>
<path d="M106.014 134.751C105.991 134.5 105.991 134.247 106.014 133.995C106.042 134.246 106.042 134.5 106.014 134.751Z" fill="#FEFEFE"/>
<path d="M111.993 133.304C112.013 133.579 112.013 133.855 111.993 134.129H112.749L112.199 134.61C112.199 134.61 112.199 135.092 112.199 135.367L111.58 134.954L110.962 135.435C110.922 135.208 110.922 134.975 110.962 134.748C110.962 134.748 110.962 134.404 110.962 134.267L110.48 133.923H111.168C111.168 133.923 111.924 133.648 111.993 133.304Z" fill="#FEFEFE"/>
<path d="M102.713 142.38H103.47V141.555C103.47 141.555 103.47 141.899 103.47 142.105C103.476 142.167 103.497 142.227 103.53 142.28C103.563 142.333 103.608 142.378 103.661 142.411C103.714 142.444 103.774 142.465 103.836 142.471C103.898 142.478 103.961 142.47 104.02 142.449C104.02 142.449 104.02 142.449 104.501 142.449L103.951 142.93C103.972 143.182 103.972 143.435 103.951 143.687L103.263 143.205L102.645 143.755V142.93L102.713 142.38Z" fill="#FEFEFE"/>
<path d="M121.896 141.282L121.346 141.695C121.346 141.695 121.346 141.695 121.346 142.039V142.795L120.727 142.382L120.177 142.864C120.137 142.613 120.137 142.358 120.177 142.107C120.202 142.053 120.215 141.995 120.215 141.936C120.215 141.876 120.202 141.818 120.177 141.764C119.942 141.675 119.731 141.534 119.559 141.351H120.315C120.261 141.102 120.261 140.844 120.315 140.595V141.282C120.315 141.282 120.315 141.282 120.659 141.282H121.346H121.896Z" fill="#FEFEFE"/>
</g>
<defs>
<clipPath id="clip0_378_48332">
<rect width="220" height="220" fill="white"/>
</clipPath>
</defs>
</svg>
