<svg width="220" height="220" viewBox="0 0 220 220" fill="none" xmlns="http://www.w3.org/2000/svg">
<path d="M110.001 216.7C168.93 216.7 216.701 168.929 216.701 110C216.701 51.0712 168.93 3.3 110.001 3.3C51.072 3.3 3.30078 51.0712 3.30078 110C3.30078 168.929 51.072 216.7 110.001 216.7Z" fill="url(#paint0_linear_378_48327)"/>
<path d="M156.694 152.515L120.614 65.285C118.579 60.775 115.554 58.575 111.567 58.575H108.377C104.389 58.575 101.364 60.775 99.3292 65.285L83.6267 103.29H71.7467C68.1992 103.317 65.3117 106.177 65.2842 109.752V109.835C65.3117 113.382 68.1992 116.27 71.7467 116.297H78.1267L63.1392 152.515C62.8642 153.312 62.6992 154.137 62.6992 154.99C62.6992 157.025 63.3317 158.62 64.4592 159.857C65.5867 161.095 67.2092 161.7 69.2442 161.7C70.5917 161.672 71.8842 161.26 72.9567 160.462C74.1117 159.665 74.9092 158.51 75.5417 157.19L92.0417 116.27H103.482C107.029 116.242 109.917 113.382 109.944 109.807V109.642C109.917 106.095 107.029 103.207 103.482 103.18H97.3767L109.972 71.8025L144.292 157.162C144.924 158.482 145.722 159.637 146.877 160.435C147.949 161.232 149.269 161.645 150.589 161.673C152.624 161.673 154.219 161.067 155.374 159.83C156.529 158.592 157.134 156.997 157.134 154.962C157.162 154.137 157.024 153.285 156.694 152.515Z" fill="white"/>
<defs>
<linearGradient id="paint0_linear_378_48327" x1="189.555" y1="43.0613" x2="30.7852" y2="176.65" gradientUnits="userSpaceOnUse">
<stop stop-color="#B6509E"/>
<stop offset="1" stop-color="#2EBAC6"/>
</linearGradient>
</defs>
</svg>
