<svg width="220" height="220" viewBox="0 0 220 220" fill="none" xmlns="http://www.w3.org/2000/svg">
<g clip-path="url(#clip0_378_48323)">
<path d="M110 220C170.751 220 220 170.751 220 110C220 49.2487 170.751 0 110 0C49.2487 0 0 49.2487 0 110C0 170.751 49.2487 220 110 220Z" fill="#3EFFFF"/>
<path d="M44.6875 72.0981L110 34.375L175.312 72.0981V147.902L110 185.625L44.6875 147.902V72.0981ZM50.9575 140.642L77.1513 125.483L90.4406 102.211L50.9575 79.365V140.642ZM54.0994 146.08L107.051 176.667V147.4L79.2894 131.498L54.0994 146.073V146.08ZM169.042 79.5781L129.91 102.217L143.192 125.469L169.042 140.429V79.5781ZM166.086 74.0231L113.321 43.5463V73.1706L126.796 96.7588L166.086 74.0231ZM124.513 105.339L116.456 110L132.44 119.247L124.513 105.339ZM121.399 99.88L113.321 85.7175V104.555L121.399 99.88ZM87.9587 119.233L103.909 110L95.8719 105.353L87.9656 119.233H87.9587ZM85.58 127.868L107.051 140.161V115.445L85.58 127.868ZM54.0925 73.92L93.555 96.745L107.051 73.1294V43.3331L54.0925 73.92ZM166.086 145.977L141.089 131.512L113.321 147.606V176.454L166.086 145.977ZM134.819 127.882L113.321 115.445V140.346L134.819 127.875V127.882ZM98.9862 99.8937L107.051 104.555V85.7519L98.9862 99.8937Z" fill="white"/>
</g>
<defs>
<clipPath id="clip0_378_48323">
<rect width="220" height="220" fill="white"/>
</clipPath>
</defs>
</svg>
