<svg width="220" height="220" viewBox="0 0 220 220" fill="none" xmlns="http://www.w3.org/2000/svg">
<g clip-path="url(#clip0_378_48319)">
<path d="M110 220C170.751 220 220 170.751 220 110C220 49.2487 170.751 0 110 0C49.2487 0 0 49.2487 0 110C0 170.751 49.2487 220 110 220Z" fill="#767DFF"/>
<path fill-rule="evenodd" clip-rule="evenodd" d="M94.6701 44.6875H125.333C126.395 44.687 127.439 44.9695 128.356 45.506C129.273 46.0425 130.03 46.8136 130.551 47.74L178.029 132.433C178.529 133.326 178.792 134.332 178.792 135.355C178.792 136.378 178.529 137.384 178.029 138.277L162.836 165.378C162.317 166.305 161.561 167.077 160.645 167.614C159.729 168.152 158.686 168.436 157.624 168.438H62.3782C61.315 168.437 60.2711 168.154 59.3539 167.616C58.4367 167.078 57.6794 166.306 57.1601 165.378L41.9732 138.277C41.4734 137.384 41.2109 136.378 41.2109 135.355C41.2109 134.332 41.4734 133.326 41.9732 132.433L89.4519 47.74C89.9722 46.8136 90.7298 46.0425 91.647 45.506C92.5641 44.9695 93.6076 44.687 94.6701 44.6875ZM110.001 78.3819L78.0119 135.355H141.991L110.001 78.3819Z" fill="white"/>
</g>
<defs>
<clipPath id="clip0_378_48319">
<rect width="220" height="220" fill="white"/>
</clipPath>
</defs>
</svg>
