<svg width="220" height="220" viewBox="0 0 220 220" fill="none" xmlns="http://www.w3.org/2000/svg">
<g clip-path="url(#clip0_378_48315)">
<path d="M110 220C170.751 220 220 170.751 220 110C220 49.2487 170.751 0 110 0C49.2487 0 0 49.2487 0 110C0 170.751 49.2487 220 110 220Z" fill="#FF0000"/>
<path d="M30.2913 149.263L66.9831 82.4587C68.5025 79.6675 71.0256 78.9112 73.5831 80.4237H73.8512C74.4245 80.7684 75.063 80.9904 75.7264 81.0756C76.3898 81.1607 77.0637 81.1073 77.7054 80.9186C78.347 80.7299 78.9426 80.4101 79.4543 79.9793C79.966 79.5486 80.3827 79.0163 80.6781 78.4162L106.452 38.9263C107.326 37.2625 108.439 35.7294 109.752 34.375C110.908 35.7912 111.767 37.4206 112.276 39.1737L123.413 66.7631C125.936 73.1019 132.007 77.6531 138.346 77.6531H140.36C143.612 77.7769 146.692 79.1312 148.974 81.4481L157.059 90.0419C159.459 92.5856 161.666 95.2875 163.659 98.1475L189.729 135.603C190.706 137.088 191.634 138.607 192.5 140.154V140.401C191.096 139.309 189.822 138.059 188.705 136.675L153.526 100.176C151.353 97.9836 149.478 95.5148 147.95 92.8331C145.145 86.7625 141.611 84.2187 136.056 84.4869H128.975C124.685 84.4869 123.661 83.7306 122.375 79.42L112.276 47.795C110.509 41.4563 110.248 41.4563 108.481 47.795L101.654 69.245C100.134 73.5281 99.6188 80.6231 100.382 80.6231C100.643 80.6231 102.41 77.3231 105.194 71.5138C105.724 70.3312 106.397 69.2244 107.209 68.2137C107.855 70.6337 108.199 73.1225 108.24 75.625C107.498 77.3712 106.652 79.0625 105.696 80.6919L105.449 81.4481C102.41 87.01 102.41 87.2712 105.696 92.5856L108.728 97.6387C109.883 99.1925 110.818 100.897 111.519 102.699C110.085 103.912 108.561 105.015 106.961 105.999L91.2725 116.119C88.4723 117.654 85.354 118.517 82.1631 118.642C76.5875 118.394 71.7819 121.186 67.4781 126.988L61.4075 135.603C59.2213 138.298 56.76 140.759 54.065 142.945L48.5031 147.496C45.6412 149.482 42.5899 151.179 39.3938 152.563L36.3619 153.319C34.1619 154.117 31.8588 154.626 29.5281 154.825C28.49 154.825 27.5 154.825 27.5 154.577C28.2906 152.735 29.2188 150.961 30.2913 149.263Z" fill="white"/>
</g>
<defs>
<clipPath id="clip0_378_48315">
<rect width="220" height="220" fill="white"/>
</clipPath>
</defs>
</svg>
