<svg width="220" height="220" viewBox="0 0 220 220" fill="none" xmlns="http://www.w3.org/2000/svg">
<g clip-path="url(#clip0_378_48310)">
<path d="M110 220C170.751 220 220 170.751 220 110C220 49.2487 170.751 0 110 0C49.2487 0 0 49.2487 0 110C0 170.751 49.2487 220 110 220Z" fill="#0D1E30"/>
<g filter="url(#filter0_d_378_48310)">
<path d="M108.11 41.6622C111.403 39.9641 115.425 43.8897 113.679 47.1278C112.655 49.7678 108.798 50.4691 106.831 48.4547C104.748 46.5297 105.429 42.7072 108.11 41.6553V41.6622ZM72.6696 45.416C74.6702 44.6047 77.2071 46.406 77.0008 48.5578C77.2071 50.8816 74.3196 52.6003 72.2777 51.4935C69.5758 50.4622 69.8852 46.1447 72.6696 45.416ZM145.256 51.5553C142.128 51.1841 141.633 46.3441 144.637 45.3678C146.975 44.2541 149.12 46.351 149.463 48.5303C148.968 50.3866 147.387 52.0916 145.256 51.5553ZM80.734 60.2522C84.0821 58.1691 88.8533 61.2697 88.3377 65.0991C88.1658 68.956 82.9546 71.1972 80.0121 68.5847C77.1658 66.536 77.599 61.8335 80.734 60.2522ZM131.815 62.466C133.307 58.6847 139.357 58.561 141.055 62.246C142.74 65.1128 140.67 68.6672 137.68 69.6435C133.713 70.3722 129.952 66.151 131.815 62.466ZM103.841 69.4303C103.806 66.1716 106.818 63.7516 109.96 63.5247C112.05 63.9372 114.318 64.8103 115.212 66.8797C116.883 69.7397 115.398 73.6653 112.393 74.9785C111.018 75.7347 109.382 75.4528 107.883 75.3635C105.594 74.2635 103.662 72.0841 103.841 69.4303ZM51.1371 74.1741C54.1965 72.3178 58.3215 75.6866 57.1596 78.9591C56.5271 81.7847 52.6634 82.9328 50.4565 81.1316C48.0984 79.4403 48.4696 75.3772 51.144 74.1672L51.1371 74.1741ZM164.313 74.1603C166.905 72.1803 171.188 74.456 170.872 77.6735C171.051 80.6091 167.345 82.8297 164.774 81.3172C161.941 80.0591 161.646 75.7691 164.313 74.1672V74.1603ZM118.663 80.0109C122.94 78.4984 128.027 80.3066 130.461 84.0672C133.678 88.6528 131.973 95.6378 126.975 98.271C121.805 101.385 114.25 98.7522 112.331 93.0597C110.166 87.9722 113.328 81.6059 118.656 80.0109H118.663ZM93.549 80.5128C98.2927 78.3128 104.68 80.1553 106.969 84.9266C109.664 89.5741 107.581 96.0435 102.761 98.4428C97.9352 101.145 91.1221 99.096 88.7915 94.1116C86.1721 89.2853 88.4958 82.7335 93.549 80.5128ZM68.4071 88.9622C68.7715 85.9578 71.6521 83.9985 74.5602 83.7922C76.0769 83.9524 77.4943 84.6223 78.5808 85.6926C79.6673 86.7628 80.3585 88.17 80.5415 89.6841C80.3352 92.7778 77.9083 95.7891 74.5808 95.7753C70.9165 96.0847 67.7058 92.4959 68.4071 88.9622ZM142.671 84.4522C146.431 82.3003 151.65 85.4285 151.485 89.6772C151.739 94.1803 145.964 97.3497 142.224 94.7097C138.333 92.5097 138.635 86.3222 142.671 84.4522ZM83.3396 100.313C87.7258 99.1235 92.7584 101.158 94.9102 105.132C97.2683 109.133 96.3059 114.688 92.6415 117.631C87.9321 121.935 79.2627 120.202 76.7602 114.331C73.8796 108.948 77.379 101.729 83.3327 100.306L83.3396 100.313ZM130.963 100.292C135.232 99.0891 140.251 100.705 142.547 104.534C145.586 108.913 144.135 115.452 139.618 118.27C134.875 121.55 127.546 119.831 124.933 114.702C121.771 109.402 124.954 101.908 130.963 100.292ZM55.0627 105.283C58.8577 103.874 63.0652 107.992 61.5252 111.698C60.5902 115.067 55.7571 116.318 53.2615 113.829C50.3396 111.492 51.419 106.301 55.0627 105.283ZM157.975 110.66C157.903 109.146 158.433 107.666 159.447 106.541C160.462 105.415 161.879 104.736 163.392 104.651C165.991 105.063 168.521 107.126 168.315 109.91C168.555 113.588 164.052 116.084 160.862 114.358C159.37 113.609 158.607 112.103 157.975 110.66ZM36.3971 107.112C38.6796 106.129 41.5052 108.075 40.9827 110.57C40.859 113.396 36.6171 114.489 35.0634 112.124C33.6884 110.481 34.5134 107.958 36.3971 107.105V107.112ZM180.421 107.05C182.03 105.93 184.615 106.734 185.248 108.583C186.327 110.605 184.347 113.368 182.037 113.032C178.792 113.32 177.747 108.46 180.421 107.05ZM95.7421 120.615C101.751 119.082 108.213 124.011 108.255 130.102C108.64 136.255 102.273 141.707 96.1271 140.291C91.3696 139.535 87.6365 135.025 87.7946 130.302C87.7808 125.778 91.2458 121.57 95.7421 120.615ZM119.543 120.608C125.641 118.93 132.296 123.949 132.2 130.178C132.523 136.214 126.356 141.487 120.334 140.284C114.662 139.569 110.482 133.443 112.063 128.026C112.861 124.423 115.927 121.495 119.543 120.601V120.608ZM73.6458 124.355C77.8671 123.647 81.8271 128.273 80.1152 132.22C78.864 136.427 72.649 137.562 69.899 134.131C66.6815 130.831 69.0877 124.808 73.6458 124.355ZM143.455 124.54C147.222 122.987 151.842 126.19 151.553 130.212C151.705 134.633 145.998 137.685 142.32 135.1C138.147 132.783 138.91 125.957 143.455 124.54ZM162.966 143.79C161.495 141.088 164.169 137.507 167.228 138.008C168.741 137.981 169.806 139.157 170.776 140.147C170.975 141.748 171.312 143.66 169.958 144.89C168.122 147.18 163.963 146.527 162.966 143.79ZM51.1233 138.758C53.9765 136.895 58.0809 139.679 57.4346 142.952C57.0909 145.86 53.3783 147.517 50.9377 145.867C48.3115 144.375 48.4077 140.119 51.1233 138.758ZM107.45 144.828C111.183 143.213 115.941 146.41 115.583 150.452C115.858 154.921 109.98 158.015 106.33 155.333C102.273 153.03 102.954 146.252 107.45 144.828ZM81.3665 150.817C84.5427 149.173 88.8052 152.013 88.5165 155.519C88.6127 158.393 85.7665 160.84 82.879 160.414C80.4934 160.366 78.9396 158.255 78.1696 156.255C78.2108 154.075 79.1252 151.648 81.3665 150.823V150.817ZM134.208 150.872C137.48 148.878 142.128 151.738 141.818 155.478C141.901 159.397 136.648 161.899 133.603 159.328C130.66 157.313 131.018 152.473 134.208 150.872ZM143.4 173.215C141.942 171.057 143.654 168.451 146.012 167.956C147.916 168.334 149.931 169.743 149.525 171.902C149.25 174.838 144.891 175.732 143.4 173.222V173.215ZM70.449 171.338C71.0265 169.62 72.429 167.922 74.4846 168.368C77.4752 168.575 78.3621 173.016 75.7427 174.384C73.3915 175.945 70.6552 173.807 70.449 171.338ZM105.649 173.312C106.22 170.768 109.554 169.537 111.754 170.885C113.211 171.503 113.638 173.098 114.009 174.46C113.813 175.167 113.629 175.877 113.459 176.591C112.558 177.636 111.396 178.688 109.898 178.653C107.113 178.977 104.597 175.876 105.642 173.312H105.649Z" fill="black"/>
</g>
<path d="M108.11 41.6622C111.403 39.9641 115.425 43.8897 113.679 47.1278C112.655 49.7678 108.798 50.4691 106.831 48.4547C104.748 46.5297 105.429 42.7072 108.11 41.6553V41.6622ZM72.6696 45.416C74.6702 44.6047 77.2071 46.406 77.0008 48.5578C77.2071 50.8816 74.3196 52.6003 72.2777 51.4935C69.5758 50.4622 69.8852 46.1447 72.6696 45.416ZM145.256 51.5553C142.128 51.1841 141.633 46.3441 144.637 45.3678C146.975 44.2541 149.12 46.351 149.463 48.5303C148.968 50.3866 147.387 52.0916 145.256 51.5553ZM80.734 60.2522C84.0821 58.1691 88.8533 61.2697 88.3377 65.0991C88.1658 68.956 82.9546 71.1972 80.0121 68.5847C77.1658 66.536 77.599 61.8335 80.734 60.2522ZM131.815 62.466C133.307 58.6847 139.357 58.561 141.055 62.246C142.74 65.1128 140.67 68.6672 137.68 69.6435C133.713 70.3722 129.952 66.151 131.815 62.466ZM103.841 69.4303C103.806 66.1716 106.818 63.7516 109.96 63.5247C112.05 63.9372 114.318 64.8103 115.212 66.8797C116.883 69.7397 115.398 73.6653 112.393 74.9785C111.018 75.7347 109.382 75.4528 107.883 75.3635C105.594 74.2635 103.662 72.0841 103.841 69.4303ZM51.1371 74.1741C54.1965 72.3178 58.3215 75.6866 57.1596 78.9591C56.5271 81.7847 52.6634 82.9328 50.4565 81.1316C48.0984 79.4403 48.4696 75.3772 51.144 74.1672L51.1371 74.1741ZM164.313 74.1603C166.905 72.1803 171.188 74.456 170.872 77.6735C171.051 80.6091 167.345 82.8297 164.774 81.3172C161.941 80.0591 161.646 75.7691 164.313 74.1672V74.1603ZM118.663 80.0109C122.94 78.4984 128.027 80.3066 130.461 84.0672C133.678 88.6528 131.973 95.6378 126.975 98.271C121.805 101.385 114.25 98.7522 112.331 93.0597C110.166 87.9722 113.328 81.6059 118.656 80.0109H118.663ZM93.549 80.5128C98.2927 78.3128 104.68 80.1553 106.969 84.9266C109.664 89.5741 107.581 96.0435 102.761 98.4428C97.9352 101.145 91.1221 99.096 88.7915 94.1116C86.1721 89.2853 88.4958 82.7335 93.549 80.5128ZM68.4071 88.9622C68.7715 85.9578 71.6521 83.9985 74.5602 83.7922C76.0769 83.9524 77.4943 84.6223 78.5808 85.6926C79.6673 86.7628 80.3585 88.17 80.5415 89.6841C80.3352 92.7778 77.9083 95.7891 74.5808 95.7753C70.9165 96.0847 67.7058 92.4959 68.4071 88.9622ZM142.671 84.4522C146.431 82.3003 151.65 85.4285 151.485 89.6772C151.739 94.1803 145.964 97.3497 142.224 94.7097C138.333 92.5097 138.635 86.3222 142.671 84.4522ZM83.3396 100.313C87.7258 99.1235 92.7584 101.158 94.9102 105.132C97.2683 109.133 96.3059 114.688 92.6415 117.631C87.9321 121.935 79.2627 120.202 76.7602 114.331C73.8796 108.948 77.379 101.729 83.3327 100.306L83.3396 100.313ZM130.963 100.292C135.232 99.0891 140.251 100.705 142.547 104.534C145.586 108.913 144.135 115.452 139.618 118.27C134.875 121.55 127.546 119.831 124.933 114.702C121.771 109.402 124.954 101.908 130.963 100.292ZM55.0627 105.283C58.8577 103.874 63.0652 107.992 61.5252 111.698C60.5902 115.067 55.7571 116.318 53.2615 113.829C50.3396 111.492 51.419 106.301 55.0627 105.283ZM157.975 110.66C157.903 109.146 158.433 107.666 159.447 106.541C160.462 105.415 161.879 104.736 163.392 104.651C165.991 105.063 168.521 107.126 168.315 109.91C168.555 113.588 164.052 116.084 160.862 114.358C159.37 113.609 158.607 112.103 157.975 110.66ZM36.3971 107.112C38.6796 106.129 41.5052 108.075 40.9827 110.57C40.859 113.396 36.6171 114.489 35.0634 112.124C33.6884 110.481 34.5134 107.958 36.3971 107.105V107.112ZM180.421 107.05C182.03 105.93 184.615 106.734 185.248 108.583C186.327 110.605 184.347 113.368 182.037 113.032C178.792 113.32 177.747 108.46 180.421 107.05ZM95.7421 120.615C101.751 119.082 108.213 124.011 108.255 130.102C108.64 136.255 102.273 141.707 96.1271 140.291C91.3696 139.535 87.6365 135.025 87.7946 130.302C87.7808 125.778 91.2458 121.57 95.7421 120.615ZM119.543 120.608C125.641 118.93 132.296 123.949 132.2 130.178C132.523 136.214 126.356 141.487 120.334 140.284C114.662 139.569 110.482 133.443 112.063 128.026C112.861 124.423 115.927 121.495 119.543 120.601V120.608ZM73.6458 124.355C77.8671 123.647 81.8271 128.273 80.1152 132.22C78.864 136.427 72.649 137.562 69.899 134.131C66.6815 130.831 69.0877 124.808 73.6458 124.355ZM143.455 124.54C147.222 122.987 151.842 126.19 151.553 130.212C151.705 134.633 145.998 137.685 142.32 135.1C138.147 132.783 138.91 125.957 143.455 124.54ZM162.966 143.79C161.495 141.088 164.169 137.507 167.228 138.008C168.741 137.981 169.806 139.157 170.776 140.147C170.975 141.748 171.312 143.66 169.958 144.89C168.122 147.18 163.963 146.527 162.966 143.79ZM51.1233 138.758C53.9765 136.895 58.0809 139.679 57.4346 142.952C57.0909 145.86 53.3783 147.517 50.9377 145.867C48.3115 144.375 48.4077 140.119 51.1233 138.758ZM107.45 144.828C111.183 143.213 115.941 146.41 115.583 150.452C115.858 154.921 109.98 158.015 106.33 155.333C102.273 153.03 102.954 146.252 107.45 144.828ZM81.3665 150.817C84.5427 149.173 88.8052 152.013 88.5165 155.519C88.6127 158.393 85.7665 160.84 82.879 160.414C80.4934 160.366 78.9396 158.255 78.1696 156.255C78.2108 154.075 79.1252 151.648 81.3665 150.823V150.817ZM134.208 150.872C137.48 148.878 142.128 151.738 141.818 155.478C141.901 159.397 136.648 161.899 133.603 159.328C130.66 157.313 131.018 152.473 134.208 150.872ZM143.4 173.215C141.942 171.057 143.654 168.451 146.012 167.956C147.916 168.334 149.931 169.743 149.525 171.902C149.25 174.838 144.891 175.732 143.4 173.222V173.215ZM70.449 171.338C71.0265 169.62 72.429 167.922 74.4846 168.368C77.4752 168.575 78.3621 173.016 75.7427 174.384C73.3915 175.945 70.6552 173.807 70.449 171.338ZM105.649 173.312C106.22 170.768 109.554 169.537 111.754 170.885C113.211 171.503 113.638 173.098 114.009 174.46C113.813 175.167 113.629 175.877 113.459 176.591C112.558 177.636 111.396 178.688 109.898 178.653C107.113 178.977 104.597 175.876 105.642 173.312H105.649Z" fill="white"/>
</g>
<defs>
<filter id="filter0_d_378_48310" x="33.3789" y="40.7526" width="153.172" height="139.424" filterUnits="userSpaceOnUse" color-interpolation-filters="sRGB">
<feFlood flood-opacity="0" result="BackgroundImageFix"/>
<feColorMatrix in="SourceAlpha" type="matrix" values="0 0 0 0 0 0 0 0 0 0 0 0 0 0 0 0 0 0 127 0" result="hardAlpha"/>
<feOffset dy="0.5"/>
<feGaussianBlur stdDeviation="0.5"/>
<feColorMatrix type="matrix" values="0 0 0 0 0 0 0 0 0 0 0 0 0 0 0 0 0 0 0.204257 0"/>
<feBlend mode="normal" in2="BackgroundImageFix" result="effect1_dropShadow_378_48310"/>
<feBlend mode="normal" in="SourceGraphic" in2="effect1_dropShadow_378_48310" result="shape"/>
</filter>
<clipPath id="clip0_378_48310">
<rect width="220" height="220" fill="white"/>
</clipPath>
</defs>
</svg>
