<svg width="220" height="220" viewBox="0 0 220 220" fill="none" xmlns="http://www.w3.org/2000/svg">
<g clip-path="url(#clip0_378_48306)">
<path d="M110 220C170.751 220 220 170.751 220 110C220 49.2487 170.751 0 110 0C49.2487 0 0 49.2487 0 110C0 170.751 49.2487 220 110 220Z" fill="#FEC807"/>
<path fill-rule="evenodd" clip-rule="evenodd" d="M171.767 121.213H137.887L131.837 103.063H171.712C173.076 103.063 174.384 102.521 175.348 101.557C176.312 100.593 176.854 99.2847 176.854 97.9208C176.854 96.5569 176.312 95.2489 175.348 94.2845C174.384 93.3201 173.076 92.7783 171.712 92.7783H128.564L111.26 40.0264C111.04 38.2836 110.207 36.6761 108.909 35.4926C107.611 34.3091 105.933 33.6271 104.178 33.5691C102.422 33.5112 100.703 34.081 99.3299 35.1763C97.9566 36.2716 97.0188 37.8206 96.6848 39.5452L55.2973 165.378C55.1873 166.066 55.1873 166.753 55.2973 167.441C55.326 169.117 55.9592 170.727 57.0805 171.974C58.2018 173.221 59.7356 174.021 61.3998 174.227C63.064 174.433 64.7465 174.03 66.1378 173.094C67.5291 172.158 68.5354 170.751 68.9717 169.132L103.697 63.257L113.618 92.7783H105.024C103.66 92.7783 102.352 93.3201 101.388 94.2845C100.424 95.2489 99.8817 96.5569 99.8817 97.9208C99.8817 99.2847 100.424 100.593 101.388 101.557C102.352 102.521 103.66 103.063 105.024 103.063H117.124L123.174 121.213H105.024C104.349 121.213 103.68 121.346 103.056 121.605C102.432 121.863 101.865 122.242 101.388 122.719C100.91 123.197 100.532 123.764 100.273 124.388C100.015 125.012 99.8817 125.68 99.8817 126.356C99.8817 127.031 100.015 127.7 100.273 128.324C100.532 128.948 100.91 129.515 101.388 129.992C101.865 130.47 102.432 130.848 103.056 131.107C103.68 131.365 104.349 131.498 105.024 131.498H126.749L136.546 160.538H84.578C82.6525 160.538 80.8059 161.303 79.4444 162.665C78.0829 164.026 77.318 165.873 77.318 167.798C77.318 169.724 78.0829 171.57 79.4444 172.932C80.8059 174.293 82.6525 175.058 84.578 175.058H146.047C149.856 175.058 152.943 171.971 152.943 168.163C152.947 167.117 152.719 166.084 152.276 165.138L141.207 131.498H171.457C172.133 131.498 172.801 131.365 173.425 131.107C174.049 130.848 174.616 130.47 175.094 129.992C175.571 129.515 175.95 128.948 176.208 128.324C176.467 127.7 176.6 127.031 176.6 126.356C176.6 125.68 176.467 125.012 176.208 124.388C175.95 123.764 175.571 123.197 175.094 122.719C174.616 122.242 174.049 121.863 173.425 121.605C172.801 121.346 172.133 121.213 171.457 121.213H171.76H171.767Z" fill="white"/>
</g>
<defs>
<clipPath id="clip0_378_48306">
<rect width="220" height="220" fill="white"/>
</clipPath>
</defs>
</svg>
