<svg width="220" height="220" viewBox="0 0 220 220" fill="none" xmlns="http://www.w3.org/2000/svg">
<g clip-path="url(#clip0_378_48302)">
<path d="M110 220C170.751 220 220 170.751 220 110C220 49.2487 170.751 0 110 0C49.2487 0 0 49.2487 0 110C0 170.751 49.2487 220 110 220Z" fill="#1B75BC"/>
<path fill-rule="evenodd" clip-rule="evenodd" d="M79.6606 59.1388L110 90.805L139.597 59.1388L158.125 78.1L127.903 110L158.125 141.646L139.597 160.848L110 129.195L79.6606 160.848L61.875 142.175L91.85 109.821L61.875 78.1L79.6606 59.1456V59.1388ZM82.1013 56.5537L109.876 27.5L137.651 56.5537L123.035 72.1256L109.876 57.5919L96.7175 72.1256L82.1013 56.5537ZM82.1013 163.446L96.7175 147.874L109.876 162.408L123.035 147.874L137.651 163.446L109.876 192.5L82.1013 163.446Z" fill="white"/>
</g>
<defs>
<clipPath id="clip0_378_48302">
<rect width="220" height="220" fill="white"/>
</clipPath>
</defs>
</svg>
