<svg width="220" height="220" viewBox="0 0 220 220" fill="none" xmlns="http://www.w3.org/2000/svg">
<g clip-path="url(#clip0_378_48298)">
<path d="M110 220C170.751 220 220 170.751 220 110C220 49.2487 170.751 0 110 0C49.2487 0 0 49.2487 0 110C0 170.751 49.2487 220 110 220Z" fill="#DE3F6B"/>
<path d="M67.045 75.625H73.26C82.9744 76.5463 91.96 81.2694 98.6081 88.0688C112.42 102.087 120.01 121.866 137.589 132.296C150.294 139.838 168.066 133.671 174.309 120.924C177.485 120.869 180.682 120.869 183.858 120.883C179.486 133.829 166.746 143.131 152.818 144.375H147.689C139.116 143.688 130.776 140.498 124.293 134.984C114.874 127.263 108.824 116.669 101.503 107.236C95.205 98.8969 88.7837 89.5194 78.3612 85.7313C65.4844 81.0631 49.7612 88.3644 45.0656 100.767C40.9406 110.983 44.2956 123.647 53.5219 130.192C60.4381 135.362 70.07 137.294 78.375 134.282C87.6012 131.065 94.4487 123.75 99.7012 115.995C101.771 118.862 103.785 121.77 105.779 124.699C97.6112 134.647 86.2812 143.192 72.8063 144.375H67.2856C50.3044 143.234 35.5438 129.278 34.375 112.791V107.394C35.475 90.9425 50.05 76.8212 67.045 75.625ZM147.345 75.625H152.501C169.641 76.7044 184.216 90.9425 185.625 107.429V115.885C171.483 116.009 157.327 115.926 143.186 115.94C143.199 113.465 143.199 111.011 143.186 108.536C154.364 108.508 165.529 108.584 176.688 108.508C175.897 104.136 174.872 99.66 172.191 95.9544C165.66 86.3019 151.848 82.3556 140.807 86.5356C132.007 89.6981 125.379 96.6144 120.271 103.998C118.305 101.269 116.353 98.4981 114.462 95.7069C122.526 85.6144 133.781 76.8831 147.345 75.625Z" fill="white"/>
</g>
<defs>
<clipPath id="clip0_378_48298">
<rect width="220" height="220" fill="white"/>
</clipPath>
</defs>
</svg>
