<svg width="220" height="220" viewBox="0 0 220 220" fill="none" xmlns="http://www.w3.org/2000/svg">
<g clip-path="url(#clip0_378_48290)">
<path d="M110 220C170.751 220 220 170.751 220 110C220 49.2487 170.751 0 110 0C49.2487 0 0 49.2487 0 110C0 170.751 49.2487 220 110 220Z" fill="#134451"/>
<path d="M96.2416 112.213C92.8247 112.213 90.2397 112.791 88.4522 113.884C86.7334 114.95 85.8672 116.565 85.8672 118.683C85.8672 120.264 86.4034 121.543 87.4141 122.45C88.4522 123.365 89.9097 123.818 91.7247 123.818C94.5434 123.818 96.8947 122.938 98.7647 121.206C100.642 119.446 101.913 116.985 102.546 113.829L102.835 112.213H96.2347H96.2416ZM132.432 97.3016C131.393 96.3941 129.936 95.9404 128.128 95.9404C125.302 95.9404 122.951 96.8204 121.081 98.5529C119.211 100.313 117.932 102.774 117.307 105.93L117.011 107.538L123.611 107.511C127.028 107.511 129.613 106.933 131.393 105.84C133.112 104.775 133.978 103.166 133.978 101.042C133.978 99.4604 133.477 98.216 132.432 97.3016Z" fill="white"/>
<path d="M185.384 101.131C183.129 80.7533 147.503 68.1445 105.84 72.9777C64.1776 77.8039 32.2363 98.2433 34.4913 118.628C36.7532 139.005 72.3519 151.607 114.035 146.781C155.732 141.948 187.646 121.508 185.384 101.131ZM141.796 111.333C137.575 114.345 131.422 115.83 123.344 115.864L115.499 115.891L115.259 117.012C115.188 117.258 115.148 117.512 115.142 117.768C115.108 117.926 115.108 118.078 115.108 118.201C115.108 119.934 115.912 121.206 117.486 122.051C119.068 122.938 121.405 123.358 124.471 123.358C127.379 123.358 130.178 123.028 132.818 122.423C135.43 121.811 137.96 120.903 140.366 119.686L138.373 130.377C135.375 131.106 132.494 131.683 129.641 132.048C126.895 132.441 124.125 132.646 121.35 132.66C117.548 132.66 114.399 132.199 111.869 131.23C109.257 130.226 106.342 128.04 104.891 124.911C102.201 127.477 99.0834 129.552 95.6788 131.044C92.5214 132.392 89.1227 133.085 85.6894 133.079C81.3582 133.113 77.9344 132.048 75.5007 129.951C73.0326 127.861 71.8157 124.939 71.7882 121.268C71.7538 115.616 73.8644 111.333 78.0582 108.356C82.2726 105.352 88.4257 103.867 96.5107 103.833L104.348 103.805L104.589 102.678C104.662 102.432 104.704 102.178 104.713 101.921C104.74 101.77 104.74 101.619 104.74 101.495C104.74 99.7627 103.936 98.4908 102.361 97.6383C100.787 96.7583 98.4426 96.332 95.3763 96.332C92.4682 96.332 89.6701 96.6689 87.0301 97.2739C84.4176 97.8789 81.8876 98.7864 79.4813 100.01L81.4751 89.3195C84.4726 88.5908 87.3532 88.0133 90.2063 87.6489C92.9528 87.2552 95.7231 87.0508 98.4976 87.037C102.306 87.037 105.455 87.4977 107.985 88.467C110.598 89.4708 113.506 91.657 114.963 94.7852C117.653 92.2175 120.771 90.1398 124.176 88.6458C127.331 87.2983 130.727 86.606 134.158 86.6108C138.496 86.5833 141.913 87.642 144.347 89.7389C146.822 91.8358 148.032 94.7577 148.059 98.4289C148.094 104.046 146.018 108.356 141.796 111.333Z" fill="white"/>
<path d="M113.593 149.208C107.564 149.909 101.59 150.239 95.794 150.239C82.0027 150.239 69.1121 148.301 58.3802 144.499C53.9426 142.972 49.6975 140.935 45.7302 138.428C44.2658 146.114 45.249 152.886 49.0233 157.926C59.8652 172.411 90.2046 167.798 120.221 148.301C118.021 148.631 115.821 148.933 113.593 149.208ZM106.553 70.8537C126.903 68.4818 146.518 70.1525 161.76 75.5562C166.202 77.084 170.452 79.1236 174.423 81.6337C175.874 73.9475 174.898 67.1756 171.123 62.1362C160.275 47.6506 129.942 52.2637 99.9258 71.7612C102.126 71.3968 104.353 71.0943 106.553 70.8537Z" fill="white"/>
<path d="M84.4164 166.822C80.4473 167.772 76.3946 168.332 72.3164 168.492C75.3827 176.605 80.1677 182.283 86.4927 184.408C101.769 189.543 121.528 172.72 135.525 144.863C132.225 145.777 128.808 146.595 125.364 147.297C111.69 156.956 97.4308 163.79 84.4164 166.822ZM136.653 53.0198C140.623 52.0879 144.676 51.5491 148.753 51.411C145.714 43.2985 140.963 37.5923 134.631 35.4404C119.39 30.2429 99.5414 46.9766 85.4545 74.7379C88.7545 73.8304 92.1714 73.0398 95.6433 72.3729C109.318 62.7479 123.611 55.9966 136.653 53.0198Z" fill="white"/>
</g>
<defs>
<clipPath id="clip0_378_48290">
<rect width="220" height="220" fill="white"/>
</clipPath>
</defs>
</svg>
