<svg width="220" height="220" viewBox="0 0 220 220" fill="none" xmlns="http://www.w3.org/2000/svg">
<g clip-path="url(#clip0_378_48284)">
<path d="M110 220C170.751 220 220 170.751 220 110C220 49.2487 170.751 0 110 0C49.2487 0 0 49.2487 0 110C0 170.751 49.2487 220 110 220Z" fill="#15073A"/>
<path d="M117.865 44.1649C117.483 43.8892 117.215 43.4828 117.112 43.0229C117.01 42.5629 117.079 42.0813 117.308 41.6693C117.628 41.464 118 41.3549 118.381 41.3549C118.761 41.3549 119.133 41.464 119.453 41.6693C124.298 43.6806 128.684 46.6558 132.344 50.4143C134.427 52.3461 136.173 54.6011 137.5 57.083C138.903 59.613 140.051 62.2599 140.938 65.003C141.783 67.8424 142.223 70.7918 142.23 73.748C141.797 76.6699 141.371 90.8324 133.203 97.5011C132.164 98.1262 130.929 98.3442 129.739 98.1132C128.548 97.8821 127.485 97.2184 126.754 96.2499C126.171 95.5654 125.816 94.7155 125.739 93.8192C125.663 92.9229 125.869 92.0252 126.328 91.2517C129.801 85.8761 131.719 79.6448 131.87 73.247C132.022 66.8492 130.401 60.534 127.188 54.9999C124.438 51.1086 121.316 47.4855 117.865 44.1649ZM105.188 171.916C106.047 172.748 106.047 173.58 105.621 173.999C105.194 174.419 104.328 174.831 103.902 174.412C99.0568 172.4 94.6711 169.425 91.0112 165.667C88.9344 163.745 87.1919 161.492 85.855 158.998C84.4552 156.478 83.3039 153.828 82.4175 151.085C81.5679 148.245 81.1326 145.297 81.125 142.333C81.5581 139.418 81.9844 125.249 90.1519 118.58C91.1908 117.957 92.4234 117.74 93.6126 117.971C94.8018 118.202 95.8636 118.864 96.5938 119.831C97.2194 120.514 97.5664 121.407 97.5664 122.334C97.5664 123.26 97.2194 124.153 96.5938 124.836C93.1227 130.211 91.2054 136.441 91.0537 142.837C90.902 149.234 92.5219 155.548 95.7344 161.081C98.5188 164.979 101.688 168.609 105.188 171.916Z" fill="white"/>
<path d="M142.27 137.541C141.648 129.543 138.485 121.952 133.243 115.878C127.937 110.545 121.852 106.048 115.197 102.541C109.391 99.3318 103.921 95.5501 98.8684 91.2521C94.713 87.3466 91.8633 82.2545 90.7077 76.6702C89.6816 70.9045 90.4147 64.9635 92.8115 59.6202C95.6832 53.6756 99.8005 48.4187 104.884 44.2064C105.17 43.9515 105.366 43.6114 105.444 43.2363C105.522 42.8613 105.478 42.4711 105.317 42.1233C105.194 41.9041 105.024 41.7154 104.818 41.5716C104.612 41.4277 104.376 41.3324 104.128 41.2927C103.88 41.253 103.626 41.27 103.386 41.3424C103.145 41.4148 102.924 41.5408 102.739 41.7108C95.8915 44.6979 90.0658 49.6204 85.9777 55.8733C81.4058 62.4424 79.2642 70.3987 79.9209 78.3752C80.2638 82.4054 81.2817 86.3493 82.9321 90.0421C84.718 93.6972 87.0347 97.0681 89.8071 100.045C95.2706 105.266 101.5 109.62 108.28 112.956C114.11 115.981 119.59 119.618 124.608 123.791C129.023 127.665 131.918 132.982 132.776 138.793C133.986 144.836 133.23 151.099 130.624 156.709C127.699 162.615 123.43 167.753 118.16 171.71C117.985 171.81 117.834 171.946 117.716 172.109C117.598 172.272 117.516 172.458 117.475 172.654C117.434 172.851 117.436 173.055 117.479 173.251C117.522 173.447 117.607 173.632 117.727 173.793C117.967 174.233 118.414 174.55 118.916 174.625C119.418 174.701 119.94 174.556 120.312 174.213C126.7 170.524 132.258 165.558 136.64 159.624C140.902 153.038 142.868 145.296 142.27 137.541Z" fill="white"/>
</g>
<defs>
<clipPath id="clip0_378_48284">
<rect width="220" height="220" fill="white"/>
</clipPath>
</defs>
</svg>
