<svg width="220" height="220" viewBox="0 0 220 220" fill="none" xmlns="http://www.w3.org/2000/svg">
<g clip-path="url(#clip0_378_48280)">
<path d="M110 220C170.751 220 220 170.751 220 110C220 49.2487 170.751 0 110 0C49.2487 0 0 49.2487 0 110C0 170.751 49.2487 220 110 220Z" fill="#F49E00"/>
<path d="M135.816 119.171C151.258 94.9781 163.282 55 163.282 55L137.535 60.8369L128.109 94.1806C127.223 69.1831 110.083 60.0325 110.083 60.0325C96.3539 53.3431 84.1164 56.2856 75.2957 60.885C64.3782 66.5637 56.4376 76.4637 52.6357 87.8625C47.232 104.081 47.892 122.279 48.607 130.515C48.8957 134.379 49.7482 138.181 51.1507 141.811C60.6245 166.375 86.8664 164.979 86.8664 164.979C110.908 164.127 125.518 135.816 125.518 135.816L132.406 156.633C138.58 167.076 152.254 163.164 155.066 162.58C155.561 162.47 156.001 162.415 156.503 162.305L171.876 159.961V153.271C138.408 154.179 135.816 119.178 135.816 119.178V119.171ZM103.236 144.334C101.166 146.456 98.5555 147.972 95.687 148.72C89.4514 150.274 84.6595 147.654 81.3526 144.444C77.6581 140.713 75.1285 135.988 74.072 130.845C68.0082 96.5387 76.3889 81.5031 81.9576 74.5938C83.4744 72.6569 85.4299 71.1082 87.6627 70.0755C89.8956 69.0427 92.3419 68.5554 94.8001 68.6537C116.415 69.7812 121.269 115.005 121.269 115.005C115.15 131.058 107.264 140.374 103.236 144.334Z" fill="white"/>
</g>
<defs>
<clipPath id="clip0_378_48280">
<rect width="220" height="220" fill="white"/>
</clipPath>
</defs>
</svg>
