<svg width="220" height="220" viewBox="0 0 220 220" fill="none" xmlns="http://www.w3.org/2000/svg">
<g clip-path="url(#clip0_378_48274)">
<path d="M110 220C170.751 220 220 170.751 220 110C220 49.2487 170.751 0 110 0C49.2487 0 0 49.2487 0 110C0 170.751 49.2487 220 110 220Z" fill="#00BFEC"/>
<path d="M109.8 159.156C82.5955 159.156 60.4648 137.163 60.4648 110.138C60.4648 83.1051 82.6023 61.1189 109.8 61.1189C137.004 61.1189 159.135 83.1051 159.135 110.138C159.135 137.163 137.004 159.156 109.8 159.156ZM109.8 70.7164C87.9305 70.7164 70.1311 88.3989 70.1311 110.138C70.1311 131.869 87.9305 149.552 109.8 149.552C131.676 149.552 149.469 131.869 149.469 110.138C149.469 88.3989 131.676 70.7164 109.8 70.7164ZM144.347 54.1132C133.939 47.7759 121.985 44.4312 109.8 44.447C98.5833 44.4423 87.548 47.2757 77.7211 52.6832L73.0186 44.2957C84.284 38.0885 96.9375 34.834 109.8 34.8357C123.825 34.8357 137.52 38.672 149.407 45.932L144.347 54.1132ZM158.75 167.619L152.5 160.284C159.829 154.143 165.722 146.471 169.767 137.807C173.811 129.143 175.908 119.699 175.91 110.138H185.576C185.576 132.316 175.8 153.264 158.75 167.613V167.619ZM109.8 185.426C92.2205 185.426 75.088 179.307 61.5648 168.204L67.7248 160.806C79.5962 170.519 94.4616 175.826 109.8 175.828C120.525 175.828 130.755 173.353 140.201 168.486L144.649 177.011C133.866 182.544 121.92 185.431 109.8 185.433V185.426Z" fill="white"/>
<path opacity="0.5" d="M174.282 92.2966C171.754 83.231 167.309 74.8141 161.247 67.6154L167.434 62.4866C174.23 70.5573 179.213 79.9944 182.044 90.1585L174.289 92.2966H174.282ZM47.1629 151.085C39.1057 138.95 34.8169 124.703 34.836 110.137C34.836 89.7735 42.9485 70.7573 57.6816 56.5879L63.2779 62.3422C56.8102 68.5057 51.6664 75.9225 48.1605 84.14C44.6546 92.3574 42.8602 101.203 42.8866 110.137C42.8866 123.193 46.6954 135.829 53.8866 146.685L47.1629 151.085Z" fill="white"/>
</g>
<defs>
<clipPath id="clip0_378_48274">
<rect width="220" height="220" fill="white"/>
</clipPath>
</defs>
</svg>
