<svg width="220" height="220" viewBox="0 0 220 220" fill="none" xmlns="http://www.w3.org/2000/svg">
<g clip-path="url(#clip0_378_48270)">
<path d="M110 220C170.751 220 220 170.751 220 110C220 49.2487 170.751 0 110 0C49.2487 0 0 49.2487 0 110C0 170.751 49.2487 220 110 220Z" fill="#005B9A"/>
<path d="M102.897 33L73.8946 83.0316C73.3027 82.6392 72.5135 82.6392 71.7243 82.6392H71.3297C70.5405 82.6392 69.5541 82.8354 68.7649 83.2278C67.9757 83.6203 67.1865 84.2089 66.5946 84.7975L38.7757 69.4937L102.897 33ZM117.3 33L181.224 69.4937L153.208 84.7975C152.616 84.0127 152.024 83.424 151.038 83.0316C150.249 82.6392 149.262 82.443 148.473 82.443H148.078C147.684 82.443 147.092 82.443 146.697 82.6392L117.3 33ZM106.054 34.962V106.38L78.0378 91.076C78.4324 89.1139 77.8405 87.1519 76.8541 85.5823L106.054 34.962ZM113.946 34.7658L143.541 84.6013C142.751 85.3861 142.159 86.3671 141.962 87.5443C141.765 88.7215 141.765 89.8987 141.962 90.8797L113.946 106.184V34.7658ZM113.946 110.5L143.935 94.019C144.724 94.6076 145.514 95 146.5 95.3924V125.411C145.514 125.804 144.724 126.196 143.935 126.981L113.946 110.5ZM106.054 110.5L75.6703 127.177C75.0784 126.589 74.2892 126 73.3027 125.804V95.7848C74.2892 95.5886 75.2757 95 76.0649 94.4114L106.054 110.5ZM69.5541 125.608V97.7468L41.9324 145.424L64.8189 133.063C64.6216 131.494 65.0162 129.924 66.0027 128.551C66.7919 127.177 68.173 126.196 69.5541 125.608ZM154.984 133.063L178.068 145.62L150.446 96.3734V125.608C152.024 126.196 153.208 127.177 153.997 128.551C154.786 129.924 155.181 131.494 154.984 133.063ZM183 72.8291V146.601L153.405 93.8228C154.195 93.038 154.589 92.2532 154.984 91.076C155.181 90.0949 155.378 89.1139 154.984 87.9367L183 72.8291ZM37 72.8291L64.8189 88.1329C64.6216 89.1139 64.6216 90.0949 64.8189 91.076C65.2135 92.4494 66.0027 93.6266 67.1865 94.4114L37 146.601V72.8291ZM106.054 114.816V183.291L76.6568 136.595C77.4459 135.81 77.8405 134.633 78.0378 133.652C78.2351 132.475 78.0378 131.494 77.6432 130.513L106.054 114.816ZM113.946 114.816L141.962 130.12C141.568 131.297 141.568 132.278 141.765 133.456C141.962 134.633 142.554 135.614 143.343 136.399L113.946 185.253V114.816ZM180.238 151.114L117.3 187.019L146.697 138.361C147.881 138.753 148.868 138.753 150.051 138.557C151.235 138.361 152.222 137.772 153.011 136.987C153.208 136.791 153.208 136.791 153.405 136.595L180.238 151.114ZM39.7622 151.114L66.3973 136.595C67.3838 137.576 68.3703 138.165 69.7514 138.557C70.9351 138.949 72.3162 138.949 73.5 138.557L104.476 188L39.7622 151.114Z" fill="white"/>
</g>
<defs>
<clipPath id="clip0_378_48270">
<rect width="220" height="220" fill="white"/>
</clipPath>
</defs>
</svg>
