<svg width="220" height="220" viewBox="0 0 220 220" fill="none" xmlns="http://www.w3.org/2000/svg">
<g clip-path="url(#clip0_378_48266)">
<path d="M110 220C170.751 220 220 170.751 220 110C220 49.2487 170.751 0 110 0C49.2487 0 0 49.2487 0 110C0 170.751 49.2487 220 110 220Z" fill="black"/>
<path d="M70.4688 157.548L86.3019 130.144L102.121 102.836L117.851 75.4325L120.464 71.0875L121.612 75.4325L126.438 93.4725L121.034 102.836L105.215 130.144L89.485 157.548H108.391L124.218 130.144L132.419 115.961L136.283 130.144L143.612 157.548H160.593L153.264 130.144L145.929 102.836L144.004 95.7894L155.774 75.4325H138.6L138.016 73.4044L132.034 51.0194L131.264 48.125H114.764L114.379 48.7025L98.9381 75.4325L83.1119 102.836L67.3888 130.144L51.5625 157.548H70.4688Z" fill="white"/>
</g>
<defs>
<clipPath id="clip0_378_48266">
<rect width="220" height="220" fill="white"/>
</clipPath>
</defs>
</svg>
