<svg width="220" height="220" viewBox="0 0 220 220" fill="none" xmlns="http://www.w3.org/2000/svg">
<g clip-path="url(#clip0_378_48262)">
<path d="M110 220C170.751 220 220 170.751 220 110C220 49.2487 170.751 0 110 0C49.2487 0 0 49.2487 0 110C0 170.751 49.2487 220 110 220Z" fill="#3C5BE0"/>
<path d="M185.625 110.103V110.158C185.602 110.707 185.454 111.243 185.192 111.726C184.229 113.479 161.191 154.688 110.007 154.688C58.8225 154.688 35.7706 113.479 34.815 111.726C34.5502 111.244 34.3996 110.707 34.375 110.158V109.849L34.3819 109.691C34.4219 109.238 34.5479 108.797 34.7531 108.391L34.7669 108.364L34.8081 108.281C35.7706 106.521 58.8156 65.3125 110 65.3125C161.184 65.3125 184.229 106.528 185.185 108.281L185.226 108.364L185.247 108.398C185.449 108.802 185.573 109.241 185.611 109.691V110.007L185.625 110.103ZM177.994 110C174.123 103.991 159.576 83.9231 133.203 75.8519C141.694 81.8007 147.667 90.697 149.958 100.808C151.766 101.221 153.065 102.843 153.099 104.727C153.134 106.611 151.896 108.274 150.095 108.756C148.294 109.237 146.417 108.412 145.523 106.762C145.091 105.958 144.936 105.034 145.084 104.134C145.232 103.233 145.674 102.407 146.341 101.784C142.945 86.5013 130.378 74.6969 114.895 72.6412C114.778 72.6271 114.663 72.6018 114.551 72.5656C111.517 72.4029 108.476 72.4029 105.442 72.5656C105.33 72.6017 105.215 72.6271 105.098 72.6412C99.0649 73.4533 93.3259 75.7442 88.3919 79.31C88.1515 79.4808 87.8742 79.5924 87.5825 79.6356C87.2908 79.6787 86.993 79.6523 86.7135 79.5585C86.4339 79.4646 86.1805 79.306 85.974 79.0955C85.7674 78.8851 85.6136 78.6288 85.525 78.3475C85.4048 77.9663 85.4071 77.5569 85.5316 77.1771C85.6562 76.7972 85.8967 76.466 86.2194 76.23C86.3856 76.1093 86.5529 75.9902 86.7213 75.8725C60.39 83.9644 45.87 103.991 42.0063 110C45.8356 115.961 60.1563 135.712 86.075 143.928C77.5265 137.687 71.6855 128.415 69.7469 118.009C68.0006 117.356 66.9281 115.582 67.1344 113.706C67.3406 111.829 68.7844 110.337 70.6269 110.096C72.4694 109.856 74.2431 110.921 74.9169 112.688C75.2423 113.542 75.2757 114.479 75.012 115.353C74.7483 116.228 74.2023 116.99 73.4594 117.521C76.4156 132.715 88.2269 144.519 103.242 147.29C107.744 147.66 112.269 147.66 116.772 147.29C122.374 146.237 127.656 143.903 132.206 140.47C132.468 140.267 132.78 140.137 133.108 140.095C133.437 140.052 133.771 140.099 134.076 140.229C134.382 140.365 134.647 140.579 134.844 140.849C135.042 141.119 135.165 141.437 135.201 141.77C135.237 142.102 135.185 142.439 135.051 142.745C134.916 143.052 134.703 143.317 134.434 143.516L133.836 143.963C159.809 135.761 174.158 115.967 177.994 110ZM143.137 110.117C143.137 128.659 128.274 143.749 110 143.749C91.7262 143.749 76.8625 128.659 76.8625 110.117C76.8625 91.575 91.7262 76.4913 110 76.4913C128.274 76.4913 143.137 91.5681 143.137 110.117ZM139.397 110.117C139.397 93.6719 126.211 80.2863 110 80.2863C93.7887 80.2863 80.5956 93.665 80.5956 110.124C80.5956 126.582 93.7887 139.948 110 139.948C126.211 139.948 139.397 126.569 139.397 110.117ZM120.835 100.884C120.835 104.486 119.054 107.841 116.091 109.821L119.048 127.882C119.115 128.202 119.11 128.533 119.031 128.851C118.952 129.168 118.802 129.464 118.592 129.715C118.382 129.966 118.117 130.166 117.819 130.3C117.52 130.434 117.195 130.498 116.868 130.487H103.668C103.341 130.497 103.016 130.433 102.717 130.299C102.418 130.165 102.154 129.966 101.943 129.715C101.733 129.464 101.582 129.169 101.502 128.851C101.422 128.534 101.415 128.202 101.482 127.882L104.424 109.821C100.217 106.996 98.5669 101.537 100.485 96.8C102.403 92.0631 107.36 89.3681 112.31 90.3581C117.267 91.355 120.835 95.7619 120.835 100.884ZM150.721 114.929C149.761 123.542 146.131 131.638 140.339 138.084C140.121 138.334 139.84 138.521 139.525 138.626C139.21 138.73 138.873 138.748 138.548 138.678C138.224 138.608 137.925 138.452 137.681 138.226C137.437 138.001 137.258 137.715 137.163 137.397C137.063 137.076 137.048 136.735 137.12 136.407C137.193 136.079 137.35 135.775 137.576 135.527C142.837 129.67 146.135 122.314 147.008 114.489C147.063 113.995 147.312 113.543 147.7 113.231C148.088 112.919 148.583 112.774 149.077 112.826C150.109 112.949 150.838 113.891 150.721 114.929ZM82.8644 81.4619C83.2255 81.8103 83.4352 82.2868 83.4481 82.7884C83.4609 83.2901 83.276 83.7767 82.9331 84.1431C77.6594 89.7879 74.2447 96.9148 73.15 104.562C73.0769 105.055 72.8116 105.498 72.4122 105.796C72.0128 106.094 71.5118 106.221 71.0187 106.15C70.5261 106.07 70.0846 105.8 69.7899 105.397C69.4952 104.994 69.3711 104.492 69.4444 103.998C70.6522 95.5852 74.4125 87.7454 80.2175 81.5375C80.3856 81.3573 80.588 81.2124 80.8127 81.1112C81.0375 81.01 81.2801 80.9546 81.5265 80.9482C81.7729 80.9418 82.0181 80.9845 82.2478 81.0739C82.4775 81.1633 82.6871 81.2975 82.8644 81.4688V81.4619Z" fill="white"/>
</g>
<defs>
<clipPath id="clip0_378_48262">
<rect width="220" height="220" fill="white"/>
</clipPath>
</defs>
</svg>
