<svg width="220" height="220" viewBox="0 0 220 220" fill="none" xmlns="http://www.w3.org/2000/svg">
<g clip-path="url(#clip0_378_48258)">
<path d="M110 220C170.751 220 220 170.751 220 110C220 49.2487 170.751 0 110 0C49.2487 0 0 49.2487 0 110C0 170.751 49.2487 220 110 220Z" fill="#2DAEE4"/>
<path fill-rule="evenodd" clip-rule="evenodd" d="M57.0821 82.2041H57.8384C64.459 82.0803 70.2134 79.5778 75.0946 74.7034C79.8384 69.5747 82.2171 63.6966 82.2171 57.0691C82.2171 53.6934 83.434 50.7853 85.8746 48.3447C87.0313 47.1588 88.4186 46.2225 89.951 45.5935C91.4834 44.9644 93.1284 44.656 94.7846 44.6872C98.1534 44.6872 101.068 45.9041 103.502 48.3447C105.943 50.7853 107.16 53.6934 107.16 57.0691C107.16 60.4378 106.005 63.3528 103.695 65.7934C102.633 66.9616 101.346 67.9039 99.9125 68.5642C98.4786 69.2245 96.9263 69.5892 95.3484 69.6366C88.219 69.3822 82.0934 71.8228 76.9646 76.9516C71.8359 82.0803 69.4021 88.0822 69.6496 94.9641C69.8971 102.087 72.4684 108.027 77.3428 112.777C82.719 117.528 88.7209 119.845 95.3484 119.721C96.9268 119.769 98.4794 120.135 99.9134 120.796C101.347 121.458 102.633 122.402 103.695 123.571C106.005 126.005 107.16 128.851 107.16 132.096C107.16 135.602 105.943 138.572 103.502 141.013C102.376 142.185 101.021 143.115 99.5219 143.744C98.0226 144.373 96.4104 144.688 94.7846 144.67C91.2784 144.67 88.3153 143.447 85.8746 141.013C84.6888 139.856 83.7525 138.469 83.1235 136.936C82.4944 135.404 82.186 133.759 82.2171 132.103C82.2701 128.892 81.6649 125.705 80.4387 122.737C79.2126 119.769 77.3915 117.084 75.0878 114.847C72.8629 112.487 70.1923 110.591 67.2304 109.269C64.2685 107.948 61.074 107.226 57.8315 107.147C55.4596 107.277 53.4315 106.899 51.7403 106.026C50.0788 105.174 48.6598 103.916 47.6153 102.368C46.5381 100.776 45.7729 98.9937 45.3603 97.1159C44.9278 95.241 44.8347 93.3037 45.0853 91.3959C46.7078 85.2703 50.709 82.2041 57.0821 82.2041ZM57.254 119.721C60.5059 119.721 63.3521 120.91 65.7859 123.289C68.2265 125.661 69.5053 128.48 69.6359 131.732C69.5053 138.607 71.884 144.608 76.7584 149.737C81.6396 154.735 87.5109 157.238 94.3928 157.238H94.9565C101.708 157.238 107.517 154.735 112.398 149.737C117.397 144.732 119.837 138.737 119.713 131.725C119.704 128.444 119.016 125.201 117.692 122.199C116.368 119.197 114.437 116.502 112.02 114.283C107.084 109.587 101.343 107.208 94.7846 107.153H94.0146C92.4367 107.106 90.8844 106.741 89.4505 106.081C88.0166 105.421 86.7303 104.478 85.6684 103.31C84.5438 102.156 83.6582 100.792 83.0624 99.2944C82.4666 97.7972 82.1723 96.1971 82.1965 94.5859C82.1965 91.2172 83.4203 88.3022 85.854 85.8616C87.9234 83.7991 90.3778 82.6028 93.2103 82.2866L94.0353 82.2041L94.3515 82.2109C94.6792 82.2023 95.0071 82.2046 95.3346 82.2178C101.797 82.1353 107.421 79.6947 112.227 74.8891C117.355 69.7603 119.858 63.6966 119.727 56.6909C119.727 53.9409 120.669 51.4384 122.546 49.1903L122.732 49.0047L122.917 48.8122C122.917 48.6884 122.986 48.6266 123.103 48.6266L123.295 48.4409V48.2553H123.481V48.0559C123.605 48.0559 123.667 47.9941 123.667 47.8703L123.852 47.6847H124.23C124.23 47.5541 124.299 47.4922 124.416 47.4922L124.608 47.3066V47.1209H124.98C124.98 46.9903 125.048 46.9284 125.165 46.9284L125.358 46.7428L125.543 46.5572H125.729C125.729 46.4334 125.798 46.3716 125.922 46.3716C126.045 46.3716 126.107 46.3028 126.107 46.1791H126.293L126.478 45.9934H126.857V45.8078H127.042L127.235 45.6153H127.606V45.4434H127.984L128.17 45.2578H128.548L128.733 45.0722H129.297L129.483 44.8797H130.047C130.17 44.8797 130.232 44.8178 130.232 44.6941H134.172L134.268 44.7903C134.33 44.8522 134.419 44.8797 134.543 44.8797H134.921L135.017 44.9759C135.079 45.0378 135.168 45.0722 135.292 45.0722H135.67L135.856 45.2578H136.234L136.42 45.4434H136.798C136.922 45.5672 137.045 45.6291 137.169 45.6291L137.362 45.8216H137.733V46.0072H137.925L138.111 46.1928L138.2 46.2891C138.269 46.3578 138.358 46.3853 138.482 46.3853L138.675 46.5709H138.86C138.86 46.6947 138.984 46.7566 139.232 46.7566L139.424 46.9422V47.1347H139.61C139.61 47.2584 139.733 47.3203 139.988 47.3203C139.988 47.4441 140.05 47.5059 140.173 47.5059V47.6984H140.359L140.552 47.8841C140.675 48.0078 140.799 48.0697 140.923 48.0697L141.108 48.2622C141.108 48.3859 141.177 48.4478 141.301 48.4478V48.6334H141.487C141.487 48.7572 141.521 48.8534 141.583 48.9084L141.672 49.0116C141.672 49.1353 141.741 49.1972 141.865 49.1972L142.05 49.3828C142.05 49.5066 142.078 49.6028 142.14 49.6647L142.236 49.7609L142.422 49.9466L142.614 50.1322V50.5103L142.8 50.6959V50.8747H142.985C142.985 51.0053 143.02 51.0947 143.082 51.1566L143.171 51.2528C143.171 51.3766 143.24 51.4384 143.363 51.4384V51.6309C143.363 51.7547 143.391 51.8441 143.453 51.9059L143.549 52.0022L143.735 52.1878C143.735 52.4422 143.803 52.5659 143.927 52.5659V52.7516C143.927 52.8822 143.955 52.9716 144.017 53.0334L144.113 53.1297V53.5009L144.298 53.6934V54.2572C144.422 54.3809 144.484 54.5047 144.484 54.6284V55.1922C144.615 55.3159 144.677 55.4397 144.677 55.5703V57.0622C144.677 63.6897 147.048 69.5678 151.799 74.6966C156.68 79.5709 162.497 82.0734 169.248 82.1972C172.617 82.0734 175.621 83.2284 178.254 85.6691C180.873 88.1028 182.187 91.0728 182.187 94.5791C182.187 98.0784 180.97 101.042 178.529 103.489C177.402 104.662 176.046 105.592 174.546 106.221C173.045 106.85 171.432 107.165 169.805 107.147C168.195 107.17 166.596 106.875 165.1 106.279C163.604 105.684 162.24 104.798 161.087 103.675C159.904 102.584 158.953 101.265 158.291 99.798C157.63 98.3308 157.271 96.7451 157.237 95.1359C157.368 88.2609 154.865 82.1972 149.743 76.9447C144.738 71.9397 138.675 69.5059 131.545 69.6297C128.303 69.7084 125.109 70.4288 122.147 71.7493C119.185 73.0697 116.514 74.9641 114.289 77.3228C111.985 79.5596 110.164 82.2448 108.937 85.2127C107.711 88.1806 107.106 91.3683 107.16 94.5791L107.153 95.1566C107.29 101.55 109.662 107.236 114.275 112.207C119.15 117.088 124.966 119.59 131.717 119.714C136.213 119.467 139.658 121.089 142.03 124.595C144.408 127.964 145.158 131.539 144.285 135.286C142.532 141.542 138.53 144.663 132.281 144.663H131.717C124.712 144.911 118.895 147.482 114.275 152.357C109.518 157.107 107.146 162.923 107.146 169.798C107.146 173.174 105.929 176.082 103.488 178.523C102.361 179.696 101.006 180.626 99.505 181.255C98.0045 181.884 96.391 182.199 94.764 182.18H94.3928C91.0171 182.18 88.1365 180.963 85.7646 178.523C84.6149 177.382 83.7064 176.022 83.0934 174.523C82.4804 173.025 82.1754 171.418 82.1965 169.798C82.1965 162.923 79.8246 157.107 75.074 152.357C72.8485 149.998 70.1777 148.103 67.2158 146.783C64.2539 145.463 61.0597 144.742 57.8178 144.663C56.1147 144.758 54.4105 144.499 52.8129 143.901C51.2153 143.304 49.7592 142.381 48.5365 141.192C47.2884 140.034 46.3 138.624 45.6364 137.057C44.9727 135.489 44.649 133.798 44.6865 132.096C44.6865 128.72 45.9034 125.812 48.344 123.372C49.5006 122.186 50.8879 121.249 52.4204 120.62C53.9528 119.991 55.5978 119.683 57.254 119.714V119.721Z" fill="white"/>
</g>
<defs>
<clipPath id="clip0_378_48258">
<rect width="220" height="220" fill="white"/>
</clipPath>
</defs>
</svg>
