<svg width="220" height="220" viewBox="0 0 220 220" fill="none" xmlns="http://www.w3.org/2000/svg">
<g clip-path="url(#clip0_378_48254)">
<path d="M110 220C170.751 220 220 170.751 220 110C220 49.2487 170.751 0 110 0C49.2487 0 0 49.2487 0 110C0 170.751 49.2487 220 110 220Z" fill="black"/>
<path d="M51.6384 159.844C51.542 158.221 51.5374 156.593 51.6247 154.969C52.1747 154.804 52.7384 154.694 53.3159 154.626C54.9797 154.344 56.6228 153.959 58.2453 153.477C58.6853 153.34 59.1253 153.189 59.5515 153.024C61.6828 152.206 63.5665 150.858 64.9965 149.112C65.9865 147.895 66.8528 146.582 67.5953 145.193C68.6403 143.296 69.5684 141.336 70.3865 139.329C72.0434 135.286 73.6934 131.23 75.3365 127.167L92.2422 85.2775C97.584 72.0019 102.83 58.6919 107.965 45.3406C108.068 45.0656 108.185 44.8044 108.302 44.5294C110.2 44.0069 112.07 43.4706 114.008 42.9688C114.118 43.2438 114.228 43.4775 114.318 43.725L120.849 61.6069C128.245 81.9357 135.746 102.226 143.351 122.478C145.441 128.013 147.545 133.547 149.669 139.061C150.508 141.316 151.491 143.516 152.618 145.647C153.114 146.558 153.651 147.445 154.227 148.308C155.994 151.003 158.737 152.948 161.907 153.746C163.612 154.193 165.344 154.529 167.09 154.756L168.335 154.935C168.513 155.478 168.403 156.001 168.417 156.516C168.438 157.039 168.417 157.616 168.417 158.173C168.438 158.709 168.424 159.239 168.39 159.775C168.211 159.802 168.073 159.83 167.936 159.844H124.19C124.144 159.75 124.112 159.651 124.094 159.548V155.155C124.105 155.089 124.124 155.024 124.149 154.963C124.511 154.862 124.882 154.793 125.256 154.756C127.057 154.529 128.831 154.186 130.591 153.739C131.292 153.546 131.987 153.299 132.674 153.051C133.018 152.914 133.348 152.756 133.664 152.57C135.39 151.621 136.084 150.136 135.933 148.239C135.856 147.379 135.702 146.527 135.472 145.695C135.128 144.389 134.647 143.131 134.193 141.866C125.132 117.105 116.17 92.3094 107.305 67.4781C107.209 67.2031 107.182 66.9075 106.9 66.6669C106.81 66.7219 106.693 66.7631 106.625 66.8388C106.553 66.9641 106.497 67.0981 106.46 67.2375C102.128 79.4475 97.5153 91.5612 92.9159 103.675C89.5265 112.654 86.1303 121.619 82.9678 130.673C81.7054 134.305 80.4793 137.948 79.2897 141.604C78.8236 143 78.4786 144.433 78.2584 145.887C78.0901 146.857 78.0623 147.846 78.1759 148.823C78.2506 149.46 78.458 150.074 78.7849 150.626C79.1117 151.178 79.5507 151.655 80.0734 152.027C80.7747 152.515 81.5447 152.907 82.3559 153.175C83.6484 153.622 84.9822 153.959 86.3365 154.179C87.8284 154.447 89.334 154.653 90.8328 154.887L91.1559 154.942C91.192 155.049 91.215 155.16 91.2247 155.272V159.521C91.2143 159.605 91.1959 159.688 91.1697 159.768C91.0358 159.798 90.9004 159.821 90.764 159.837H51.6384V159.844Z" fill="white"/>
</g>
<defs>
<clipPath id="clip0_378_48254">
<rect width="220" height="220" fill="white"/>
</clipPath>
</defs>
</svg>
