<svg width="18" height="18" viewBox="0 0 18 18" fill="none" xmlns="http://www.w3.org/2000/svg">
<g id="Anonymous">
<path id="Vector 735" d="M3.81584 3.85095L3.01321 6.9393C2.92513 7.27824 2.61916 7.51485 2.26897 7.51485H1.86757C1.66457 7.51485 1.5 7.67942 1.5 7.88243C1.5 8.08543 1.66457 8.25 1.86757 8.25H16.1324C16.3354 8.25 16.5 8.08543 16.5 7.88243C16.5 7.67942 16.3354 7.51485 16.1324 7.51485H15.7446C15.4049 7.51485 15.1069 7.28812 15.0164 6.96071L14.1348 3.77185C13.8058 2.58191 12.4879 1.97128 11.3674 2.48962L9.73891 3.24295C9.19726 3.49351 8.57201 3.4891 8.03395 3.23091L6.61679 2.55087C5.48205 2.00636 4.13243 2.6328 3.81584 3.85095Z" fill="#86868B"/>
<circle id="Ellipse 225" cx="4.5" cy="13.5" r="2.375" stroke="#86868B" stroke-width="1.25"/>
<circle id="Ellipse 226" cx="13.5" cy="13.5" r="2.375" stroke="#86868B" stroke-width="1.25"/>
<path id="Vector 736" d="M6.75 13.5H11.25" stroke="#86868B" stroke-width="1.5"/>
</g>
</svg>
