<svg width="18" height="18" viewBox="0 0 18 18" fill="none" xmlns="http://www.w3.org/2000/svg">
<g id="vuesax/bold/bitcoin-convert">
<g id="bitcoin-convert">
<g id="Group">
<path id="Vector" d="M7.3125 1.5C4.11 1.5 1.5 4.11 1.5 7.3125C1.5 7.62 1.755 7.875 2.0625 7.875C2.37 7.875 2.625 7.62 2.625 7.3125C2.625 5.0925 4.17 3.2325 6.2475 2.745L6.045 3.0825C5.8875 3.3525 5.97 3.6975 6.24 3.855C6.5025 4.0125 6.855 3.93 7.0125 3.66L7.8 2.3475C7.8975 2.175 7.905 1.965 7.8 1.785C7.7025 1.6125 7.515 1.5 7.3125 1.5Z" fill="#536EFF"/>
<path id="Vector_2" d="M10.6884 16.5C13.8904 16.5 16.5 13.89 16.5 10.6875C16.5 10.38 16.245 10.125 15.9376 10.125C15.6301 10.125 15.3752 10.38 15.3752 10.6875C15.3752 12.9075 13.8304 14.7675 11.7532 15.255L11.9557 14.9175C12.1132 14.6475 12.0307 14.3025 11.7607 14.145C11.4983 13.9875 11.1458 14.07 10.9883 14.34L10.201 15.6525C10.1035 15.825 10.096 16.035 10.201 16.215C10.2984 16.3875 10.4859 16.5 10.6884 16.5Z" fill="#536EFF"/>
</g>
<path id="Vector_3" d="M16.1251 6.5025C16.1251 8.8125 14.4451 10.7175 12.2476 11.07C12.2476 11.0625 12.2476 11.0625 12.2476 11.055C12.0301 8.2575 9.76505 5.9775 6.93005 5.7525C7.28255 3.555 9.18755 1.875 11.4976 1.875C14.0551 1.875 16.1251 3.945 16.1251 6.5025Z" fill="#536EFF"/>
<path id="Subtract" fill-rule="evenodd" clip-rule="evenodd" d="M6.8625 6.87731C9.135 7.04981 10.95 8.86481 11.1225 11.1373L11.1237 11.1562C11.1308 11.2692 11.1375 11.3765 11.1375 11.4973C11.1375 14.0548 9.06 16.1248 6.5025 16.1248C3.945 16.1248 1.875 14.0548 1.875 11.4973C1.875 8.93231 3.945 6.8623 6.5025 6.8623C6.62327 6.8623 6.73058 6.86903 6.84355 6.87612C6.84985 6.87651 6.85616 6.87691 6.8625 6.87731ZM6.90126 8.76181C6.80483 8.52762 6.5766 8.37479 6.32334 8.37479C6.07008 8.37479 5.84185 8.52762 5.74542 8.76181L4.4935 11.802L3.92538 13.13C3.78961 13.4473 3.93681 13.8146 4.25416 13.9504C4.57152 14.0862 4.93885 13.939 5.07462 13.6216L5.4822 12.669H7.16448L7.57206 13.6216C7.70783 13.939 8.07516 14.0862 8.39252 13.9504C8.70987 13.8146 8.85707 13.4473 8.7213 13.13L8.15318 11.802L6.90126 8.76181ZM6.32334 10.6412L6.6436 11.419H6.00307L6.32334 10.6412Z" fill="#536EFF"/>
</g>
</g>
</svg>
