<svg width="40" height="40" viewBox="0 0 40 40" fill="none" xmlns="http://www.w3.org/2000/svg">
<path d="M0 20C0 8.95431 8.95431 0 20 0C31.0457 0 40 8.95431 40 20C40 31.0457 31.0457 40 20 40C8.95431 40 0 31.0457 0 20Z" fill="#161617"/>
<path d="M0.5 20C0.5 9.23045 9.23045 0.5 20 0.5C30.7696 0.5 39.5 9.23045 39.5 20C39.5 30.7696 30.7696 39.5 20 39.5C9.23045 39.5 0.5 30.7696 0.5 20Z" stroke="#B1B1B9" stroke-opacity="0.15"/>
<path d="M16.1158 18.4042L19.9998 14.5203L23.8858 18.4062L26.1458 16.1462L19.9998 10L13.8559 16.1442L16.1158 18.4042ZM10 19.9997L12.2601 17.7396L14.52 19.9995L12.2599 22.2596L10 19.9997ZM16.1158 21.5958L19.9998 25.4797L23.8857 21.5939L26.1469 23.8527L26.1458 23.8539L19.9998 30L13.8557 23.856L13.8525 23.8528L16.1158 21.5958ZM25.4801 20.0009L27.7401 17.7409L30.0001 20.0008L27.74 22.2609L25.4801 20.0009Z" fill="#F3BA2F"/>
<path d="M22.2918 19.9988H22.2928L19.9995 17.7055L18.3047 19.4003H18.3046L18.1099 19.5951L17.7083 19.9968L17.7051 19.9999L17.7083 20.0032L19.9995 22.2945L22.2928 20.0012L22.2939 19.9999L22.2918 19.9988Z" fill="#F3BA2F"/>
</svg>
