<svg width="18" height="18" viewBox="0 0 18 18" fill="none" xmlns="http://www.w3.org/2000/svg">
<g id="vuesax/linear/card-edit">
<g id="card-edit">
<path id="Vector" d="M1.49707 6.375H8.62207" stroke="#B1B1B9" stroke-width="1.25" stroke-miterlimit="10" stroke-linecap="round" stroke-linejoin="round"/>
<path id="Vector_2" d="M4.49707 12.375H5.99707" stroke="#B1B1B9" stroke-width="1.25" stroke-miterlimit="10" stroke-linecap="round" stroke-linejoin="round"/>
<path id="Vector_3" d="M7.87207 12.375H10.8721" stroke="#B1B1B9" stroke-width="1.25" stroke-miterlimit="10" stroke-linecap="round" stroke-linejoin="round"/>
<path id="Vector_4" d="M16.4971 9.0225V12.0825C16.4971 14.715 15.8296 15.375 13.1671 15.375H4.82707C2.16457 15.375 1.49707 14.715 1.49707 12.0825V5.9175C1.49707 3.285 2.16457 2.625 4.82707 2.625H10.8721" stroke="#B1B1B9" stroke-width="1.25" stroke-linecap="round" stroke-linejoin="round"/>
<path id="Vector_5" d="M14.3073 3.09748L11.5248 5.87998C11.4198 5.98498 11.3148 6.19498 11.2923 6.34498L11.1423 7.40998C11.0898 7.79248 11.3598 8.06248 11.7423 8.00998L12.8073 7.85998C12.9573 7.83748 13.1673 7.73248 13.2723 7.62748L16.0548 4.84498C16.5348 4.36498 16.7598 3.80998 16.0548 3.10498C15.3423 2.39248 14.7873 2.61748 14.3073 3.09748Z" stroke="#B1B1B9" stroke-width="1.25" stroke-miterlimit="10" stroke-linecap="round" stroke-linejoin="round"/>
<path id="Vector_6" d="M13.9092 3.49512C14.1492 4.34262 14.8092 5.00262 15.6492 5.23512" stroke="#B1B1B9" stroke-width="1.25" stroke-miterlimit="10" stroke-linecap="round" stroke-linejoin="round"/>
</g>
</g>
</svg>
