<svg width="40" height="40" viewBox="0 0 40 40" fill="none" xmlns="http://www.w3.org/2000/svg">
<path d="M0 20C0 8.95431 8.95431 0 20 0C31.0457 0 40 8.95431 40 20C40 31.0457 31.0457 40 20 40C8.95431 40 0 31.0457 0 20Z" fill="#161617"/>
<path d="M0.5 20C0.5 9.23045 9.23045 0.5 20 0.5C30.7696 0.5 39.5 9.23045 39.5 20C39.5 30.7696 30.7696 39.5 20 39.5C9.23045 39.5 0.5 30.7696 0.5 20Z" stroke="#B1B1B9" stroke-opacity="0.15"/>
<path d="M22.0328 16.7159V14.0547H27.6377V10H12.3755V14.0547H17.981V16.7138C13.4254 16.941 10 17.9206 10 19.0941C10 20.2676 13.427 21.2472 17.981 21.4759V30H22.0341V21.4751C26.5815 21.2472 30 20.2683 30 19.0959C30 17.9234 26.5815 16.9445 22.0341 16.7166M22.0341 20.7531V20.751C21.9198 20.7589 21.3323 20.7971 20.0241 20.7971C18.9782 20.7971 18.2423 20.7649 17.983 20.7503V20.7538C13.9582 20.5603 10.954 19.7993 10.954 18.8887C10.954 17.9782 13.9585 17.2182 17.983 17.0243V19.9957C18.2466 20.0154 19.0006 20.0637 20.0412 20.0637C21.2911 20.0637 21.9195 20.0072 22.0348 19.9957V17.0243C26.0517 17.2186 29.049 17.9803 29.049 18.8877C29.049 19.795 26.0504 20.5571 22.0348 20.7513" fill="#53AE94"/>
</svg>
