<svg width="80" height="80" viewBox="0 0 80 80" fill="none" xmlns="http://www.w3.org/2000/svg">
<path d="M0.5 16C0.5 7.43959 7.43959 0.5 16 0.5H64C72.5604 0.5 79.5 7.43959 79.5 16V64C79.5 72.5604 72.5604 79.5 64 79.5H16C7.43959 79.5 0.5 72.5604 0.5 64V16Z" fill="#161617"/>
<path d="M0.5 16C0.5 7.43959 7.43959 0.5 16 0.5H64C72.5604 0.5 79.5 7.43959 79.5 16V64C79.5 72.5604 72.5604 79.5 64 79.5H16C7.43959 79.5 0.5 72.5604 0.5 64V16Z" stroke="#212122"/>
<g clip-path="url(#clip0_383_21966)">
<path d="M40 64C53.2548 64 64 53.2548 64 40C64 26.7452 53.2548 16 40 16C26.7452 16 16 26.7452 16 40C16 53.2548 26.7452 64 40 64Z" fill="#0B76FF"/>
<path d="M56.74 34.9899V31.6899L46 37.9449L39.37 26.5149V34.0149L42.745 39.8649L41.38 40.6749L39.37 37.1349L37.21 40.9749L35.71 40.3599L39.37 34.0149V26.5149L32.11 38.8749L22 34.6899V38.5149L31 40.7349L25.3 50.5149H39.37V46.4799H32.185L34.87 41.7699L36.49 42.1749L34.87 45.0249H43.87L42.52 42.6399L44.305 42.5049L46.6 46.4799H39.37V50.5149H53.5L48.64 42.2199L56.8 41.6199V38.3049L47.62 40.5699L56.785 38.2149V35.2149L46.84 39.2499L56.74 34.9899ZM43.69 41.5149L42.07 41.9199L43.66 41.5149H43.69ZM43.18 40.6149L41.68 41.2149L43.18 40.5999V40.6149Z" fill="white"/>
</g>
<defs>
<clipPath id="clip0_383_21966">
<rect width="48" height="48" fill="white" transform="translate(16 16)"/>
</clipPath>
</defs>
</svg>
