<svg width="16" height="16" viewBox="0 0 16 16" fill="none" xmlns="http://www.w3.org/2000/svg">
<path d="M11.3333 7.93341V10.7334C11.3333 13.0667 10.4 14.0001 8.06667 14.0001H5.26667C2.93333 14.0001 2 13.0667 2 10.7334V7.93341C2 5.60008 2.93333 4.66675 5.26667 4.66675H8.06667C10.4 4.66675 11.3333 5.60008 11.3333 7.93341Z" stroke="#86868B" stroke-linecap="round" stroke-linejoin="round"/>
<path d="M14.0003 5.26667V8.66667C14.0003 11 12.667 11.3333 12.067 11.3333H11.3337V7.95442C11.3337 5.62108 10.4251 4.66667 8.09175 4.66667H4.66699V4C4.66699 3.33333 5.00033 2 7.33366 2H10.7337C13.067 2 14.0003 2.93333 14.0003 5.26667Z" stroke="#86868B" stroke-linecap="round" stroke-linejoin="round"/>
</svg>
