<svg width="40" height="40" viewBox="0 0 40 40" fill="none" xmlns="http://www.w3.org/2000/svg">
<path d="M0 20C0 8.95431 8.95431 0 20 0C31.0457 0 40 8.95431 40 20C40 31.0457 31.0457 40 20 40C8.95431 40 0 31.0457 0 20Z" fill="#161617"/>
<path d="M0.5 20C0.5 9.23045 9.23045 0.5 20 0.5C30.7696 0.5 39.5 9.23045 39.5 20C39.5 30.7696 30.7696 39.5 20 39.5C9.23045 39.5 0.5 30.7696 0.5 20Z" stroke="#B1B1B9" stroke-opacity="0.15"/>
<g clip-path="url(#clip0_324_31323)">
<path d="M25.6672 16.2074C25.6672 15.2604 25.3625 14.4934 24.7531 13.9062C24.1437 13.3191 23.3422 13.0256 22.3484 13.0256H17.8484V19.3892H22.3484C23.3422 19.3892 24.1437 19.0956 24.7531 18.5085C25.3625 17.9214 25.6672 17.1544 25.6672 16.2074ZM29 16.2074C29 18.035 28.407 19.5265 27.2211 20.6818C26.0352 21.8371 24.5047 22.4148 22.6297 22.4148H17.8484V24.0909H24.95C25.0812 24.0909 25.1891 24.1335 25.2734 24.2188C25.3578 24.304 25.4 24.4129 25.4 24.5455V26.3636C25.4 26.4962 25.3578 26.6051 25.2734 26.6903C25.1891 26.7756 25.0812 26.8182 24.95 26.8182H17.8484V29.5455C17.8484 29.678 17.8039 29.7869 17.7148 29.8722C17.6258 29.9574 17.5203 30 17.3984 30H15.05C14.9187 30 14.8109 29.9574 14.7266 29.8722C14.6422 29.7869 14.6 29.678 14.6 29.5455V26.8182H11.45C11.3187 26.8182 11.2109 26.7756 11.1266 26.6903C11.0422 26.6051 11 26.4962 11 26.3636V24.5455C11 24.4129 11.0422 24.304 11.1266 24.2188C11.2109 24.1335 11.3187 24.0909 11.45 24.0909H14.6V22.4148H11.45C11.3187 22.4148 11.2109 22.3722 11.1266 22.2869C11.0422 22.2017 11 22.0928 11 21.9602V19.8438C11 19.7206 11.0422 19.6141 11.1266 19.5241C11.2109 19.4342 11.3187 19.3892 11.45 19.3892H14.6V10.4545C14.6 10.322 14.6422 10.2131 14.7266 10.1278C14.8109 10.0426 14.9187 10 15.05 10H22.6297C24.5047 10 26.0352 10.5777 27.2211 11.733C28.407 12.8883 29 14.3797 29 16.2074Z" fill="#536EFF"/>
</g>
<defs>
<clipPath id="clip0_324_31323">
<rect width="18" height="20" fill="white" transform="translate(11 10)"/>
</clipPath>
</defs>
</svg>
