<svg width="24" height="24" viewBox="0 0 24 24" fill="none" xmlns="http://www.w3.org/2000/svg">
<path d="M8.20768 20.1666C11.5406 21.708 15.6144 21.1137 18.3639 18.3629C21.8751 14.8512 21.8823 9.15234 18.3639 5.63439C14.8528 2.12187 9.14832 2.12187 5.63718 5.63439C2.8867 8.38434 2.29156 12.4595 3.83368 15.792C4.03175 16.2841 3.149 19.4692 3.84001 20.1603C4.53102 20.8505 7.71565 19.9685 8.20768 20.1666Z" stroke="white" stroke-width="1.5" stroke-linecap="round" stroke-linejoin="round"/>
<path fill-rule="evenodd" clip-rule="evenodd" d="M15 12C15 11.4477 15.445 11 15.994 11H16.006C16.555 11 17 11.4477 17 12C17 12.5523 16.555 13 16.006 13H15.994C15.445 13 15 12.5523 15 12Z" fill="white"/>
<path fill-rule="evenodd" clip-rule="evenodd" d="M11 12C11 11.4477 11.4424 11 11.9881 11H12.0119C12.5576 11 13 11.4477 13 12C13 12.5523 12.5576 13 12.0119 13H11.9881C11.4424 13 11 12.5523 11 12Z" fill="white"/>
<path fill-rule="evenodd" clip-rule="evenodd" d="M7 12C7 11.4477 7.44504 11 7.99404 11H8.00596C8.55495 11 9 11.4477 9 12C9 12.5523 8.55495 13 8.00596 13H7.99404C7.44504 13 7 12.5523 7 12Z" fill="white"/>
</svg>
