<svg width="20" height="17" viewBox="0 0 20 17" fill="none" xmlns="http://www.w3.org/2000/svg">
<path d="M1.3747 7.31847C6.74442 4.9196 10.3242 3.33796 12.1141 2.57385C17.2306 0.391906 18.2925 0.0129503 18.986 0.000111864C19.1385 -0.0023968 19.4781 0.0362658 19.6997 0.219988C19.8838 0.374935 19.9356 0.584483 19.9615 0.731608C19.9845 0.878586 20.0162 1.21357 19.9903 1.47506C19.714 4.46184 18.5141 11.7098 17.904 15.0552C17.6479 16.4707 17.1385 16.9452 16.6465 16.9916C15.576 17.0925 14.7645 16.2667 13.7285 15.5705C12.1084 14.4806 11.1933 13.8023 9.6192 12.739C7.80052 11.51 8.98036 10.8344 10.0163 9.73062C10.2868 9.44168 15.0004 5.04562 15.0896 4.64689C15.1012 4.59701 15.1127 4.41108 15.0033 4.31309C14.8968 4.21481 14.7386 4.24846 14.6235 4.27502C14.4594 4.3128 11.8724 6.06827 6.85377 9.54114C6.11996 10.0588 5.45522 10.3112 4.85667 10.2979C4.20056 10.2834 2.93439 9.91656 1.99339 9.60312C0.842328 9.21856 -0.0756468 9.01521 0.00492774 8.36207C0.045215 8.02208 0.502764 7.67411 1.3747 7.31847Z" fill="#2AABEE"/>
</svg>
