<svg width="24" height="24" viewBox="0 0 24 24" fill="none" xmlns="http://www.w3.org/2000/svg">
<path d="M15 22H9M19 14.279C19 13.2195 19 9.80487 19 9.80487C19 6.66634 15.8125 3 12 3C8.18751 3 5 6.66634 5 9.80487C5 9.80487 5 13.2195 5 14.279C5 15.1988 3.38604 15.8539 3.293 15.9444C3.19996 16.0348 3.12617 16.1423 3.07589 16.2607C3.0256 16.3791 2.99981 16.506 3 16.6341V17.6098C3 17.8685 3.10536 18.1166 3.29289 18.2996C3.48043 18.4826 3.73478 18.5854 4 18.5854H20C20.2652 18.5854 20.5196 18.4826 20.7071 18.2996C20.8946 18.1166 21 17.8685 21 17.6098V16.6341C21.0002 16.506 20.9744 16.3791 20.9241 16.2607C20.8632 16.1172 20.8146 16.049 20.707 15.9444C20.5994 15.8398 19 15.1988 19 14.279Z" stroke="white" stroke-width="1.5" stroke-linecap="round"/>
</svg>
