<svg width="36" height="22" viewBox="0 0 36 22" fill="none" xmlns="http://www.w3.org/2000/svg">
<path d="M0 4.3092C0 2.10006 1.79086 0.309204 4 0.309204H32.0002C34.2094 0.309204 36.0002 2.10007 36.0002 4.3092V17.6908C36.0002 19.9 34.2094 21.6908 32.0002 21.6908H4C1.79086 21.6908 0 19.9 0 17.6908V4.3092Z" fill="#3B5AFF"/>
<path d="M22.5579 15.6908V6.45337H26.777C27.8077 6.45337 28.6026 6.71542 29.1617 7.23954C29.7207 7.75491 30.0002 8.47557 30.0002 9.4015C30.0002 10.3274 29.7207 11.0524 29.1617 11.5766C28.6026 12.1007 27.8077 12.3627 26.777 12.3627H24.5888V15.6908H22.5579ZM24.5888 10.7904H26.4363C27.5107 10.7904 28.0479 10.3274 28.0479 9.4015C28.0479 8.49304 27.5107 8.03881 26.4363 8.03881H24.5888V10.7904Z" fill="white"/>
<path d="M14.7405 15.6908V14.184L17.6363 11.1441C18.0031 10.7423 18.2652 10.3929 18.4224 10.0959C18.5884 9.79018 18.6714 9.48444 18.6714 9.17871C18.6714 8.39255 18.1866 7.99946 17.217 7.99946C16.8414 7.99946 16.4657 8.07371 16.0901 8.22221C15.7145 8.36197 15.3476 8.58035 14.9895 8.87735L14.3344 7.38363C14.7187 7.05169 15.1904 6.78964 15.7495 6.59747C16.3172 6.40529 16.8981 6.3092 17.4921 6.3092C18.5229 6.3092 19.309 6.54069 19.8506 7.00365C20.4009 7.45788 20.6761 8.10865 20.6761 8.95597C20.6761 9.51502 20.5451 10.0522 20.283 10.5676C20.0297 11.0742 19.6104 11.6246 19.0251 12.2186L17.2432 14.0267H21.0168V15.6908H14.7405Z" fill="white"/>
<path d="M6 15.6908V6.45337H10.2191C11.2498 6.45337 12.0447 6.71542 12.6038 7.23954C13.1629 7.75491 13.4424 8.47557 13.4424 9.4015C13.4424 10.3274 13.1629 11.0524 12.6038 11.5766C12.0447 12.1007 11.2498 12.3627 10.2191 12.3627H8.03093V15.6908H6ZM8.03093 10.7904H9.87842C10.9529 10.7904 11.4901 10.3274 11.4901 9.4015C11.4901 8.49304 10.9529 8.03881 9.87842 8.03881H8.03093V10.7904Z" fill="white"/>
</svg>
