<svg width="18" height="18" viewBox="0 0 18 18" fill="none" xmlns="http://www.w3.org/2000/svg">
<g id="security-safe">
<path id="Subtract" fill-rule="evenodd" clip-rule="evenodd" d="M9.38251 16.4477C13.02 15.4427 15.6825 12.0077 15.6825 8.34022L15.69 5.04773C15.69 4.43273 15.2175 3.73523 14.6475 3.50273L10.47 1.79273C9.5325 1.41023 8.475 1.41023 7.5375 1.79273L3.36002 3.50273C2.78252 3.73523 2.3175 4.43273 2.3175 5.04773V8.34022C2.3175 12.0077 4.98 15.4427 8.6175 16.4477C8.865 16.5152 9.13502 16.5152 9.38251 16.4477ZM9.00003 5.25023C10.242 5.25023 11.25 6.26841 11.25 7.52296C11.25 8.54114 10.584 9.38659 9.67503 9.6775V12.0684C9.67503 12.4411 9.36903 12.7502 9.00003 12.7502C8.63103 12.7502 8.32503 12.4411 8.32503 12.0684V9.6775C7.41603 9.38659 6.75003 8.54114 6.75003 7.52296C6.75003 6.26841 7.75803 5.25023 9.00003 5.25023Z" fill="#2E8EFF"/>
</g>
</svg>
