<svg width="36" height="36" viewBox="0 0 36 36" fill="none" xmlns="http://www.w3.org/2000/svg">
<g id="vuesax/linear/candle-2">
<g id="vuesax/linear/candle-2_2">
<g id="candle-2">
<path id="Vector" d="M33 26.25H22.5" stroke="#6A82FF" stroke-width="3" stroke-miterlimit="10" stroke-linecap="round" stroke-linejoin="round"/>
<path id="Vector_2" d="M7.5 26.25H3" stroke="#6A82FF" stroke-width="3" stroke-miterlimit="10" stroke-linecap="round" stroke-linejoin="round"/>
<path id="Vector_3" d="M33 9.75H28.5" stroke="#6A82FF" stroke-width="3" stroke-miterlimit="10" stroke-linecap="round" stroke-linejoin="round"/>
<path id="Vector_4" d="M13.5 9.75H3" stroke="#6A82FF" stroke-width="3" stroke-miterlimit="10" stroke-linecap="round" stroke-linejoin="round"/>
<path id="Vector_5" d="M10.5 21.75H19.5C21.15 21.75 22.5 22.5 22.5 24.75V27.75C22.5 30 21.15 30.75 19.5 30.75H10.5C8.85 30.75 7.5 30 7.5 27.75V24.75C7.5 22.5 8.85 21.75 10.5 21.75Z" stroke="#6A82FF" stroke-width="3" stroke-miterlimit="10" stroke-linecap="round" stroke-linejoin="round"/>
<path id="Vector_6" d="M16.5 5.25H25.5C27.15 5.25 28.5 6 28.5 8.25V11.25C28.5 13.5 27.15 14.25 25.5 14.25H16.5C14.85 14.25 13.5 13.5 13.5 11.25V8.25C13.5 6 14.85 5.25 16.5 5.25Z" stroke="#6A82FF" stroke-width="3" stroke-miterlimit="10" stroke-linecap="round" stroke-linejoin="round"/>
</g>
</g>
</g>
</svg>
