<svg width="24" height="24" viewBox="0 0 24 24" fill="none" xmlns="http://www.w3.org/2000/svg">
<g id="Telegram">
<path id="Vector" d="M3.3747 10.3185C8.74442 7.9196 12.3242 6.33796 14.1141 5.57385C19.2306 3.39191 20.2925 3.01295 20.986 3.00011C21.1385 2.9976 21.4781 3.03627 21.6997 3.21999C21.8838 3.37494 21.9356 3.58448 21.9615 3.73161C21.9845 3.87859 22.0162 4.21357 21.9903 4.47506C21.714 7.46184 20.5141 14.7098 19.904 18.0552C19.6479 19.4707 19.1385 19.9452 18.6465 19.9916C17.576 20.0925 16.7645 19.2667 15.7285 18.5705C14.1084 17.4806 13.1933 16.8023 11.6192 15.739C9.80052 14.51 10.9804 13.8344 12.0163 12.7306C12.2868 12.4417 17.0004 8.04562 17.0896 7.64689C17.1012 7.59701 17.1127 7.41108 17.0033 7.31309C16.8968 7.21481 16.7386 7.24846 16.6235 7.27502C16.4594 7.3128 13.8724 9.06827 8.85377 12.5411C8.11996 13.0588 7.45522 13.3112 6.85667 13.2979C6.20056 13.2834 4.93439 12.9166 3.99339 12.6031C2.84233 12.2186 1.92435 12.0152 2.00493 11.3621C2.04522 11.0221 2.50276 10.6741 3.3747 10.3185Z" fill="white"/>
</g>
</svg>
