<svg width="48" height="48" viewBox="0 0 48 48" fill="none" xmlns="http://www.w3.org/2000/svg">
<path d="M24 48C37.2548 48 48 37.2548 48 24C48 10.7452 37.2548 0 24 0C10.7452 0 0 10.7452 0 24C0 37.2548 10.7452 48 24 48Z" fill="#F1CB60"/>
<path d="M22.8946 37.2839V39.4784H24.0001V36.1949H21.8056V37.2839H22.8946ZM11.8891 25.2389H10.8001V30.7169H11.8891V28.5224H12.9946V26.3279H11.8891V25.2389ZM25.1056 31.8059H26.1946V35.0894H25.1056V31.8059ZM24.0001 35.0894H25.1056V36.1949H24.0001V35.0894ZM12.9946 34.0004H16.2946V37.2839H12.9946V34.0004ZM10.8001 23.0444H11.9056V24.1334H10.8001V23.0444ZM17.4001 20.8499H18.5056V21.9554H17.4001V20.8499ZM24.0001 19.7444H25.1056V21.9389H24.0001V19.7444ZM9.69458 16.4609H12.9946V19.7444H9.69458V16.4609ZM19.5946 37.2839H20.7001V39.4784H19.5946V37.2839ZM20.7001 19.7444H19.6111V21.9389H20.7001V20.8499H21.8056V18.6554H20.7001V19.7444ZM21.8056 17.5664H22.8946V18.6554H21.8056V17.5664ZM21.8056 20.8499H22.8946V21.9389H21.8056V20.8499ZM16.2946 23.0444H19.5946V24.1334H16.2946V23.0444Z" fill="white"/>
<path d="M20.7 18.6555V17.5665H21.789V16.461H20.7V14.283H17.4V15.372H19.5945V16.461H18.489V17.55H17.4V18.639H16.311V17.5665H15.189V16.4775H16.2945V17.55H17.4V16.461H16.311V14.283H7.5V21.9555H16.311V20.85H17.4V18.6555H18.5055V19.7445H19.611V18.6555H20.7ZM14.1 20.85H8.6055V15.372H14.1V20.85ZM15.189 20.85V18.6555H16.2945V20.85H15.189ZM19.5945 17.55V16.4775H20.7V17.55H19.5945ZM28.4055 29.6115V28.5225H26.1945V26.328H25.1055V27.417H24.0165V26.328H25.1055V23.028H22.911V24.1335H21.789V26.328H20.7V27.417H21.8055V26.328H22.8945V29.6115H20.7V28.5225H19.5945V26.328H18.5055V25.239H16.2945V24.15H15.189V23.061H12.9945V24.15H11.889V25.239H12.9945V26.328H14.1V25.239H15.2055V26.328H14.1V27.417H15.2055V28.506H16.2945V27.417H17.4V26.328H18.489V27.417H17.4V28.506H16.311V30.7005H18.5055V31.806H16.2945V30.717H15.189V31.806H12.9945V30.717H11.9055V31.806H10.8V39.4785H18.5055V32.895H19.5945V36.195H21.8055V35.106H22.911V32.895H21.8055V31.806H20.7V32.895H19.611V30.7005H22.911V31.7895H24.0165V29.6115H26.1945V30.717H27.3V29.6115H28.4055ZM17.4 38.373H11.9055V32.895H17.4V38.373ZM18.5055 29.6115H17.4V28.5225H18.5055V29.6115ZM20.7 34.0005H21.8055V35.0895H20.7V34.0005ZM28.4055 14.283H29.4945V16.461H28.4055V14.283ZM26.1945 14.283H25.1055V17.5665H24V18.6555H25.1055V19.7445H26.1945V21.939H27.3V19.7445H28.4055V21.9555H29.4945V20.85H30.6V18.6555H28.4055V16.461H26.1945V14.283Z" fill="white"/>
<path fill-rule="evenodd" clip-rule="evenodd" d="M36.0945 26.3279H33.9V27.4169H32.7945V28.5224H31.7055V25.2389H32.7945V24.1334H31.7055V25.2224H30.6V26.3279H29.4945V24.1334H28.4055V26.3279H27.3V27.4334L28.4055 27.4169H29.4945V29.6114H32.7945V30.7169H29.4945V31.8059H28.4055V32.8949H27.3V34.0004H28.4055V35.0894H27.3V36.1949H28.4055V37.2839H29.4945V38.3729H28.4055V39.4784H37.2V32.8949H36.0945V38.3729H30.6V32.8949H33.9V28.5224H35.0055V29.6114H37.2V27.4334H36.111V26.3279H37.2V23.0444H36.0945V26.3279Z" fill="white"/>
<path d="M27.3 30.7169H28.4055V31.8059H27.3V30.7169ZM32.7945 25.2389H33.9V26.3279H32.7945V25.2389ZM35.0055 30.7169H37.2V31.8224H35.0055V30.7169ZM35.0055 16.4774H38.3055V19.7609H35.0055V16.4774ZM30.6 20.8499H31.7055V21.9554H30.6V20.8499ZM26.1945 23.0444H27.3V24.1334H26.1945V23.0444ZM33.9 23.0444H35.0055V24.1334H33.9V23.0444ZM31.7055 34.0004H35.0055V37.2839H31.7055V34.0004ZM30.6 23.0444H31.7055V24.1334H30.6V23.0444ZM22.8945 16.4609H24V17.5664H22.8945V16.4609Z" fill="white"/>
<path d="M30.6001 14.2829V15.3719H32.7946V16.4609H31.6891V17.5499H30.6001V16.4609H29.4946V17.5664H30.6001V18.6389H31.7056V19.7279H32.8111V21.9224H40.5001V14.2829H30.6001ZM39.3946 20.8499H33.9001V15.3719H39.3946V20.8499ZM14.7766 12.3524C15.5356 12.8639 16.3936 12.9629 17.0701 12.9959C17.6476 13.0289 18.6211 13.0289 19.6441 13.0289C21.5416 13.0289 23.7691 13.0619 24.0001 13.0619C24.6106 13.0784 26.4751 13.0784 28.1251 13.0784C29.1481 13.0784 30.1051 13.0619 30.6991 13.0454C31.3756 13.0124 32.2336 12.8969 32.9926 12.4019C33.9496 11.7584 34.4281 10.7024 34.4281 9.26691C34.4281 8.11191 33.9496 7.41891 33.5536 7.02291C32.4811 5.98341 30.8311 6.04941 30.2866 6.06591H30.2206C29.8906 6.06591 28.7026 6.24741 27.3001 7.03941C26.0626 7.73241 24.9901 8.72241 24.1156 9.95991L24.0166 10.2074L23.9341 10.0754C23.0101 8.68941 21.8056 7.74891 20.4691 6.98991C19.0831 6.19791 17.8951 6.03291 17.5651 6.03291H17.4991C16.9546 6.01641 15.3046 5.95041 14.2321 6.98991C13.5061 7.68291 13.3576 8.59041 13.3576 9.23391C13.3411 10.6529 13.8196 11.7089 14.7766 12.3524ZM28.1086 8.65641C29.2801 7.97991 30.1711 7.88091 30.2371 7.88091H30.3526C31.2931 7.84791 31.9531 7.99641 32.2996 8.32641C32.5141 8.54091 32.6296 8.83791 32.6296 9.26691C32.6296 10.8344 31.8871 11.1809 30.6166 11.2469C29.5441 11.2964 27.0526 11.2799 25.4356 11.2634C26.1009 10.1896 27.0185 9.29465 28.1086 8.65641ZM15.4696 8.27691C15.7831 7.97991 16.3441 7.83141 17.1526 7.83141H17.5486C17.6146 7.83141 18.5056 7.93041 19.6771 8.60691C20.7331 9.21741 21.6406 10.0919 22.3666 11.2139C20.7331 11.2304 18.2416 11.2469 17.1691 11.1974C15.8986 11.1314 15.1561 10.7849 15.1561 9.21741C15.1561 8.78841 15.2551 8.49141 15.4696 8.27691ZM26.1946 37.2839H25.1056V39.4784H26.2111V37.2839H27.3001V36.1949H26.1946V37.2839Z" fill="white"/>
</svg>
