<svg width="48" height="48" viewBox="0 0 48 48" fill="none" xmlns="http://www.w3.org/2000/svg">
<path d="M24 48C37.2548 48 48 37.2548 48 24C48 10.7452 37.2548 0 24 0C10.7452 0 0 10.7452 0 24C0 37.2548 10.7452 48 24 48Z" fill="#FF914D"/>
<path fill-rule="evenodd" clip-rule="evenodd" d="M24 40.8869C14.673 40.8869 7.11301 33.3269 7.11301 23.9999C7.11301 14.6729 14.673 7.11292 24 7.11292C33.327 7.11292 40.887 14.6729 40.887 23.9999C40.887 33.3269 33.327 40.8869 24 40.8869ZM24 39.8939C32.778 39.8939 39.894 32.7779 39.894 23.9999C39.894 15.2219 32.778 8.10591 24 8.10591C15.222 8.10591 8.10601 15.2219 8.10601 23.9999C8.10601 32.7779 15.222 39.8939 24 39.8939Z" fill="white"/>
<path d="M21.135 36.1979C21.507 36.0449 22.962 34.9229 24.3675 33.7154C26.1096 32.2338 27.7852 30.6757 29.3895 29.0459C30.9285 27.5069 31.5 26.8454 31.5945 26.5034C31.9275 25.3019 28.287 12.0944 27.546 11.8109C27.0945 11.6369 23.0565 14.9954 19.4805 18.5114C17.3835 20.5724 16.803 21.2579 16.758 21.7064C16.728 22.0529 16.848 22.9214 17.0715 23.9504C17.961 28.0334 19.5795 33.6749 20.3985 35.5274C20.742 36.3134 20.781 36.3479 21.1335 36.1979H21.135Z" fill="white"/>
</svg>
