<svg width="48" height="48" viewBox="0 0 48 48" fill="none" xmlns="http://www.w3.org/2000/svg">
<path d="M24 48C37.2548 48 48 37.2548 48 24C48 10.7452 37.2548 0 24 0C10.7452 0 0 10.7452 0 24C0 37.2548 10.7452 48 24 48Z" fill="#F5EB16"/>
<path d="M23.9025 6C14.013 6.0015 6 14.0205 6 23.91C6.0015 33.798 14.0205 41.814 23.91 41.8125C33.798 41.8095 41.814 33.792 41.8125 23.9025C41.8121 21.551 41.3485 19.2226 40.4482 17.0502C39.5479 14.8779 38.2286 12.9042 36.5654 11.2417C34.9023 9.57933 32.928 8.26078 30.7553 7.3614C28.5826 6.46201 26.254 5.99941 23.9025 6ZM16.632 13.845C16.6332 13.7963 16.6536 13.7501 16.6887 13.7164C16.7238 13.6827 16.7708 13.6642 16.8195 13.665H24.279C25.8439 13.6357 27.3954 13.9576 28.8195 14.607C29.0895 14.739 29.355 14.886 29.6115 15.045L24.756 17.8245H22.2225C22.1983 17.8251 22.1744 17.8304 22.1522 17.8403C22.1301 17.8501 22.1101 17.8642 22.0933 17.8817C22.0766 17.8993 22.0635 17.9199 22.0548 17.9425C22.0461 17.9652 22.0419 17.9893 22.0425 18.0135V19.4115L16.632 22.5405V13.845ZM14.6235 29.562L11.3805 26.286L22.0605 20.124V24.117C22.0617 24.1657 22.0821 24.2119 22.1172 24.2456C22.1523 24.2793 22.1993 24.2978 22.248 24.297H23.7735L14.634 29.562H14.6235ZM30.6165 26.517C29.0505 27.825 26.901 28.479 24.168 28.479H22.2225C22.1736 28.479 22.1266 28.4984 22.092 28.533C22.0574 28.5676 22.038 28.6146 22.038 28.6635V32.6955L19.323 34.2585L16.788 35.724L16.6275 35.814V29.1315L25.032 24.2955C25.7504 24.2735 26.4385 24.0014 26.9775 23.526C27.169 23.336 27.33 23.1174 27.4545 22.878L32.8215 19.7715C32.9115 20.2635 32.9565 20.7615 32.955 21.2625C32.961 23.457 32.181 25.2075 30.615 26.517H30.6165ZM27.7365 21.9885C27.7725 21.759 27.7905 21.525 27.792 21.2925C27.8373 20.3789 27.5357 19.482 26.9475 18.7815C26.6178 18.4157 26.1954 18.1457 25.725 18L33.1845 13.6935L36.4575 16.968L27.7365 21.9885Z" fill="white"/>
</svg>
