<svg width="48" height="48" viewBox="0 0 48 48" fill="none" xmlns="http://www.w3.org/2000/svg">
<path d="M24 48C37.2548 48 48 37.2548 48 24C48 10.7452 37.2548 0 24 0C10.7452 0 0 10.7452 0 24C0 37.2548 10.7452 48 24 48Z" fill="#FD875E"/>
<path d="M20.49 26.079L24.069 15.411L27.714 26.079H20.49ZM35.658 32.8245L32.6985 24.861H34.4655C34.8002 24.8614 35.1215 24.7301 35.3601 24.4954C35.5987 24.2608 35.7354 23.9416 35.7405 23.607C35.7405 23.292 35.6115 22.9875 35.385 22.7655C35.1585 22.5435 34.848 22.416 34.5255 22.416H31.7655L31.323 21.177H34.4655C34.7929 21.1799 35.1086 21.0552 35.3456 20.8292C35.5825 20.6032 35.722 20.2937 35.7345 19.9665C35.736 19.6335 35.6025 19.3155 35.3625 19.0815C35.1225 18.8475 34.7985 18.7155 34.4595 18.717H30.3795L28.17 12.765C27.8374 11.911 27.2915 11.1565 26.5845 10.5735C25.8793 10.0076 24.9934 9.71568 24.09 9.75148C23.1838 9.72221 22.2963 10.0133 21.5835 10.5735C20.8766 11.1571 20.3295 11.9106 19.9935 12.7635L17.679 18.7695H13.623C13.3023 18.7667 12.9935 18.8908 12.7639 19.1147C12.5343 19.3387 12.4026 19.6443 12.3975 19.965C12.3975 20.652 12.966 21.2085 13.668 21.2085H16.7475L16.2735 22.4145H13.5135C13.3541 22.4127 13.196 22.4423 13.0481 22.5017C12.9002 22.561 12.7654 22.6489 12.6515 22.7603C12.5375 22.8718 12.4466 23.0046 12.384 23.1511C12.3214 23.2977 12.2883 23.4551 12.2865 23.6145C12.2865 24.2955 12.8475 24.846 13.5405 24.849H15.312L12.303 32.823C12.1185 33.273 12.0165 33.75 12 34.2345C12.03 34.914 12.333 35.5545 12.84 36.0195C13.4012 36.4946 14.1147 36.7518 14.85 36.744C15.4642 36.7811 16.0727 36.6072 16.5747 36.2512C17.0766 35.8952 17.4419 35.3784 17.61 34.7865L18.774 31.383H29.49L30.6555 34.8675C30.8446 35.4394 31.2182 35.9324 31.7177 36.269C32.2173 36.6056 32.8144 36.7669 33.4155 36.7275C33.8805 36.738 34.338 36.6225 34.7415 36.3975C35.091 36.1425 35.4015 35.8425 35.6625 35.5005C35.8902 35.1179 36.0071 34.6796 36 34.2345C35.9269 33.7619 35.8125 33.2966 35.658 32.844V32.8245Z" fill="#FEFEFE"/>
</svg>
