<svg width="48" height="48" viewBox="0 0 48 48" fill="none" xmlns="http://www.w3.org/2000/svg">
<path d="M24 48C37.2548 48 48 37.2548 48 24C48 10.7452 37.2548 0 24 0C10.7452 0 0 10.7452 0 24C0 37.2548 10.7452 48 24 48Z" fill="#FEC807"/>
<path fill-rule="evenodd" clip-rule="evenodd" d="M37.476 26.4465H30.084L28.764 22.4865H37.464C37.7616 22.4865 38.047 22.3683 38.2574 22.1579C38.4678 21.9474 38.586 21.6621 38.586 21.3645C38.586 21.0669 38.4678 20.7815 38.2574 20.5711C38.047 20.3607 37.7616 20.2425 37.464 20.2425H28.05L24.2745 8.73298C24.2266 8.35273 24.0448 8.002 23.7615 7.74378C23.4783 7.48556 23.1123 7.33677 22.7293 7.32412C22.3462 7.31147 21.9712 7.4358 21.6716 7.67477C21.372 7.91375 21.1674 8.25172 21.0945 8.62798L12.0645 36.0825C12.0405 36.2325 12.0405 36.3825 12.0645 36.5325C12.0708 36.8983 12.2089 37.2495 12.4536 37.5216C12.6982 37.7936 13.0329 37.9681 13.396 38.0131C13.7591 38.058 14.1262 37.9702 14.4297 37.766C14.7332 37.5617 14.9528 37.2547 15.048 36.9015L22.6245 13.8015L24.789 20.2425H22.914C22.6164 20.2425 22.3311 20.3607 22.1206 20.5711C21.9102 20.7815 21.792 21.0669 21.792 21.3645C21.792 21.6621 21.9102 21.9474 22.1206 22.1579C22.3311 22.3683 22.6164 22.4865 22.914 22.4865H25.554L26.874 26.4465H22.914C22.7667 26.4465 22.6208 26.4755 22.4846 26.5319C22.3485 26.5883 22.2248 26.6709 22.1206 26.7751C22.0164 26.8793 21.9338 27.003 21.8774 27.1391C21.821 27.2752 21.792 27.4211 21.792 27.5685C21.792 27.7158 21.821 27.8617 21.8774 27.9979C21.9338 28.134 22.0164 28.2577 22.1206 28.3619C22.2248 28.466 22.3485 28.5487 22.4846 28.6051C22.6208 28.6615 22.7667 28.6905 22.914 28.6905H27.654L29.7915 35.0265H18.453C18.0329 35.0265 17.63 35.1934 17.333 35.4904C17.0359 35.7875 16.869 36.1904 16.869 36.6105C16.869 37.0306 17.0359 37.4335 17.333 37.7305C17.63 38.0276 18.0329 38.1945 18.453 38.1945H31.8645C32.6955 38.1945 33.369 37.521 33.369 36.69C33.3698 36.4619 33.3201 36.2365 33.2235 36.03L30.8085 28.6905H37.4085C37.5559 28.6905 37.7018 28.6615 37.8379 28.6051C37.974 28.5487 38.0977 28.466 38.2019 28.3619C38.3061 28.2577 38.3887 28.134 38.4451 27.9979C38.5015 27.8617 38.5305 27.7158 38.5305 27.5685C38.5305 27.4211 38.5015 27.2752 38.4451 27.1391C38.3887 27.003 38.3061 26.8793 38.2019 26.7751C38.0977 26.6709 37.974 26.5883 37.8379 26.5319C37.7018 26.4755 37.5559 26.4465 37.4085 26.4465H37.4745H37.476Z" fill="white"/>
</svg>
