<svg width="48" height="48" viewBox="0 0 48 48" fill="none" xmlns="http://www.w3.org/2000/svg">
<g clip-path="url(#clip0_32_24201)">
<path d="M48 24C48 28.7468 46.5924 33.3869 43.9553 37.3337C41.3181 41.2805 37.5698 44.3566 33.1844 46.1731C28.799 47.9896 23.9734 48.4649 19.3178 47.5388C14.6623 46.6128 10.3859 44.327 7.02945 40.9706C3.67299 37.6141 1.38721 33.3377 0.461164 28.6822C-0.464881 24.0266 0.0103987 19.201 1.8269 14.8156C3.64341 10.4302 6.71955 6.68188 10.6663 4.04473C14.6131 1.40758 19.2533 0 24 0C30.3652 0 36.4697 2.52856 40.9706 7.02944C45.4714 11.5303 48 17.6348 48 24V24Z" fill="#001B69"/>
<path d="M22.9986 33.264L20.9652 27.4145H14.0445L11.987 33.264H9.6001L16.4205 14.3105H18.5783L25.4096 33.264H22.9986ZM20.2168 25.2851L18.3274 19.8109C18.2765 19.6567 18.2132 19.4669 18.1376 19.2415C18.0699 19.0233 17.9979 18.7767 17.9194 18.5193C17.8408 18.2618 17.7666 17.9935 17.6903 17.7185C17.6139 17.4436 17.5441 17.16 17.4721 16.8916C17.411 17.16 17.3434 17.4349 17.267 17.7185C17.1906 18.0022 17.1165 18.2793 17.0488 18.5455C16.9812 18.8116 16.8961 19.0451 16.8306 19.2676C16.7652 19.4902 16.7041 19.6647 16.6517 19.8109L14.8103 25.2851H20.2168Z" fill="white"/>
<path d="M38.4001 27.5061C38.4075 28.0684 38.2991 28.6262 38.0816 29.1447C37.8729 29.632 37.561 30.0682 37.1674 30.4232C36.7463 30.8062 36.2611 31.1119 35.7339 31.3265C35.1228 31.574 34.4828 31.7434 33.8292 31.8305V34.7999H32.0837V31.9461C31.6605 31.9461 31.2336 31.9294 30.803 31.896C30.3725 31.8625 29.9528 31.8021 29.5441 31.7149C29.1578 31.642 28.776 31.5466 28.4008 31.429C28.0766 31.3302 27.7625 31.2009 27.4626 31.0429V28.8218C27.7419 28.9585 28.0634 29.104 28.427 29.2581C28.8001 29.3978 29.1885 29.5221 29.5965 29.6334C30.0045 29.7447 30.4168 29.8407 30.8401 29.917C31.2512 29.9851 31.6671 30.0201 32.0837 30.0218V24.4058C31.4112 24.1809 30.7551 23.9097 30.1201 23.5941C29.6175 23.3416 29.1556 23.0151 28.7499 22.6254C28.3896 22.2663 28.1093 21.835 27.9274 21.36C27.7403 20.8253 27.6501 20.2616 27.6612 19.6952C27.6535 19.1547 27.7575 18.6184 27.9666 18.12C28.1721 17.6451 28.4745 17.2185 28.8546 16.8676C29.2645 16.496 29.7374 16.2004 30.251 15.9949C30.8333 15.7535 31.4465 15.5948 32.0728 15.5236V13.2H33.8183V15.4712C34.6064 15.506 35.3891 15.6185 36.155 15.8072C36.8179 15.9693 37.4637 16.1943 38.0837 16.4792L37.2459 18.3512C36.7274 18.1198 36.1929 17.9258 35.6466 17.7709C35.0514 17.5896 34.4384 17.4726 33.8183 17.4218V22.8763C34.4883 23.1137 35.1439 23.3898 35.7819 23.7032C36.3065 23.9521 36.7904 24.2787 37.2176 24.672C37.5954 25.0112 37.8935 25.43 38.0903 25.8981C38.3006 26.4079 38.406 26.9548 38.4001 27.5061V27.5061ZM36.1659 27.5061C36.1692 27.2424 36.1256 26.9801 36.0372 26.7316C35.9548 26.4848 35.8158 26.2606 35.6314 26.077C35.4266 25.8571 35.1861 25.6735 34.9201 25.5338C34.5694 25.3465 34.2047 25.1867 33.8292 25.0559V29.8909C34.6168 29.7709 35.1994 29.5003 35.5746 29.0792C35.97 28.6524 36.1822 28.0877 36.1659 27.5061V27.5061ZM29.891 19.7192C29.888 20.0025 29.9224 20.285 29.9936 20.5592C30.0724 20.8047 30.1975 21.0329 30.3623 21.2312C30.5548 21.4475 30.7819 21.6304 31.0343 21.7723C31.3658 21.9595 31.7143 22.1151 32.075 22.237V17.4741C31.323 17.6109 30.7688 17.8734 30.4125 18.2618C30.0568 18.6619 29.8699 19.1843 29.891 19.7192V19.7192Z" fill="white"/>
</g>
<defs>
<clipPath id="clip0_32_24201">
<rect width="48" height="48" fill="white"/>
</clipPath>
</defs>
</svg>
