<svg width="48" height="48" viewBox="0 0 48 48" fill="none" xmlns="http://www.w3.org/2000/svg">
<g clip-path="url(#clip0_22_3725)">
<circle cx="24" cy="24" r="24" fill="white"/>
<path d="M14.8492 27.1446L15.8527 19.6046L7.14819 13.5619L15.1014 16.2559L16.9797 13.3741L23.8381 9.11841L38.9556 17.4473L39.7391 30.1552L33.0041 39.5144L27.6805 40.3301L30.4335 35.2909V30.4396L28.4318 26.6508L26.3979 25.3038L23.2692 28.5291V31.9422L20.8275 34.2284L17.7256 34.604L16.3518 35.3822L14.0978 34.6631L13.1587 31.2822L14.8492 28.9048V27.1446Z" fill="white"/>
<path d="M28.7485 13.4976C27.0903 13.1541 25.2764 13.2454 25.2764 13.2454C25.2764 13.2454 24.6807 15.9984 20.9885 16.7229C21.0154 16.7229 25.8667 18.3811 28.7485 13.4976Z" fill="#94A6C3"/>
<path d="M30.2512 38.4789C32.2529 36.9118 33.7556 34.7545 34.4478 32.3127C34.48 32.2215 34.7591 32.0605 34.9469 31.9371C35.2582 31.7492 35.5748 31.5936 35.6338 31.3414C35.7573 30.6223 35.8217 29.8709 35.8217 29.1196C35.8217 28.8406 35.5372 28.5562 35.2582 28.2771C35.0381 28.0893 34.8181 27.8692 34.8181 27.7136C34.5069 24.864 33.1921 22.2022 31.0938 20.2649L30.8737 20.4849C32.9076 22.3954 34.2224 24.9928 34.5069 27.7458C34.5391 27.998 34.7859 28.2449 35.0382 28.4971C35.2582 28.6849 35.5104 28.9694 35.5104 29.0928C35.5104 29.8119 35.446 30.531 35.3226 31.2501C35.2904 31.3736 35.0113 31.5024 34.7913 31.6258C34.48 31.7814 34.1956 31.9371 34.1366 32.1893C33.3853 34.8511 31.6626 37.1694 29.3765 38.6721C29.7843 37.7973 31.0669 34.9477 31.7538 33.5041L31.6304 28.8728L27.6538 25.025L25.3999 25.3362L22.9259 29.345C22.9259 29.345 24.0851 30.8155 22.4536 32.5381C20.8598 34.2286 19.604 34.6042 19.604 34.6042L18.4449 33.9763C18.7883 33.5363 19.4806 32.8816 20.0119 32.4415C20.9188 31.6902 21.8258 31.6258 21.8258 30.8155C21.8633 29.1196 20.0441 29.5865 20.0441 29.5865L19.384 30.2144L19.1049 32.5327L17.7311 34.2554L17.5755 34.2232L15.3215 33.7241C15.3215 33.7241 16.7007 33.005 16.9208 32.1893C17.1408 31.4058 16.4807 28.8084 16.4485 28.6527C16.4807 28.6849 17.1086 29.2162 17.3876 30.091C17.8867 28.7118 18.5468 27.397 18.7346 27.2736C18.9225 27.1501 21.4555 25.8031 21.4555 25.8031L20.6129 28.0249L21.2408 27.6814L22.7434 23.9892C22.7434 23.9892 24.2139 23.2701 25.3086 23.2701C27.2782 23.2379 30.1922 20.8284 28.8774 16.5083C29.253 16.6639 35.7626 19.9214 36.8896 26.3076C37.7321 31.2179 34.9469 35.8171 30.2512 38.4789Z" fill="#94A6C3"/>
<path d="M22.8025 14.1845C23.5217 13.3366 23.2426 12.0862 23.2426 12.0862L21.1443 15.188C21.1121 15.188 21.8902 15.2202 22.8025 14.1845Z" fill="#1B314F"/>
<path d="M15.7563 31.1213L16.0085 29.8708C16.0085 29.8708 14.9728 31.6847 14.8815 31.937C14.7849 32.2214 14.9459 32.7205 15.3484 32.6883C15.7563 32.6561 16.2553 32.0604 16.2553 31.6257C16.2553 31.0622 15.7563 31.1213 15.7563 31.1213Z" fill="#1B314F"/>
<path d="M34.8073 10.6822C34.8073 10.6822 36.3991 10.7477 38.0508 10.9385C34.3276 8.00997 30.8006 7.15376 27.9386 7.15376C23.9973 7.15376 21.3262 8.77893 21.1627 8.87164L22.4056 6.89745C22.4056 6.89745 17.4449 6.41753 15.695 11.6693C15.248 10.5568 14.8391 8.93163 14.8391 8.93163C14.8391 8.93163 12.2607 11.1949 13.4709 14.9469C10.5108 13.8671 6.28604 12.3674 6.1225 12.3401C5.89899 12.3074 5.83358 12.4056 5.83358 12.4056C5.83358 12.4056 5.76816 12.4983 5.95896 12.6619C6.31329 12.94 12.9911 17.8755 14.4575 18.8299C14.1414 19.9751 14.1414 20.515 14.4575 21.0549C14.9046 21.7857 14.9318 22.1674 14.8718 22.7073C14.8064 23.2473 14.234 27.9264 14.1087 28.499C13.9833 29.0717 12.6477 31.1058 12.7077 31.7112C12.7731 32.3165 13.5962 34.8906 14.3322 35.1797C14.8718 35.3705 16.2074 35.785 17.096 35.785C17.4122 35.785 17.7011 35.7196 17.8265 35.5941C18.3661 35.1197 18.5242 35.0215 18.9058 35.0215C18.9385 35.0215 18.9712 35.0215 18.9985 35.0215C19.1566 35.0215 19.3474 35.0542 19.5709 35.0542C20.0778 35.0542 20.7484 34.9561 21.2226 34.5143C21.9204 33.8163 23.1306 32.8619 23.5122 32.4147C23.9919 31.8094 24.2426 30.9859 24.1173 30.1569C24.0191 29.3934 24.4334 28.7226 24.9132 28.0573C25.5182 27.2611 26.6303 25.8322 26.6303 25.8322C28.8272 27.4792 30.1955 29.9933 30.1955 32.791C30.1955 37.7537 25.8726 41.7621 20.5303 41.7621C19.7017 41.7621 18.9113 41.6694 18.1154 41.4785C20.563 42.3348 22.6291 42.6238 24.319 42.6238C27.9114 42.6238 29.8193 41.3204 29.8193 41.3204C29.8193 41.3204 29.1543 42.182 28.0695 43.1637C28.1022 43.1637 28.1022 43.1637 28.1022 43.1637C34.0495 42.3348 36.9442 37.4374 36.9442 37.4374C36.9442 37.4374 36.7207 39.0299 36.4372 40.1097C44.3471 34.1598 43.0115 26.7157 42.9788 26.4649C43.0442 26.5576 43.8401 27.5119 44.2489 28.0246C45.5245 14.9142 34.8073 10.6822 34.8073 10.6822ZM22.6291 31.6185C22.5037 31.7766 21.964 32.2566 21.5824 32.6056C21.2008 32.9546 20.7865 33.3036 20.4703 33.6254C20.345 33.7508 20.0887 33.8163 19.7072 33.8163C19.5818 33.8163 19.4509 33.8163 19.3583 33.8163C19.2929 33.8163 19.2329 33.8163 19.1675 33.8163C19.1021 33.8163 19.0694 33.8163 19.0421 33.8163C18.944 33.8163 18.8513 33.8163 18.7532 33.8163C19.2329 33.1782 20.6284 31.7166 21.1081 31.4003C21.6805 31.0186 21.9694 30.6368 21.6151 29.9715C21.2662 29.3007 20.345 29.4643 20.345 29.4643C20.345 29.4643 20.8846 29.2407 21.3644 29.2407C20.7593 29.0826 19.9961 29.2407 19.6472 29.5898C19.2656 29.9388 19.331 31.1822 19.1729 31.973C19.0148 32.8019 18.4752 33.2164 17.6466 33.9799C17.1996 34.3944 16.8834 34.5198 16.6272 34.5198C16.0875 34.4271 15.4497 34.2635 15.0027 34.1053C14.6865 33.6908 14.2068 32.322 14.0814 31.7494C14.1741 31.4331 14.5557 30.7623 14.7465 30.3805C15.1281 29.6497 15.3516 29.2353 15.417 28.8535C15.5424 28.3136 15.9567 24.9706 16.1147 23.5745C16.529 24.1144 17.1014 25.0088 16.9706 25.5814C17.8919 24.278 17.2268 23.0018 16.9052 22.4947C16.6217 21.9875 16.2401 20.9677 16.5563 19.8879C16.8725 18.808 18.0172 15.814 18.0172 15.814C18.0172 15.814 18.3988 16.4848 18.9385 16.3539C19.4782 16.2285 23.8338 9.67331 23.8338 9.67331C23.8338 9.67331 25.0113 12.2474 23.7684 14.1289C22.4982 16.0049 21.2553 16.3539 21.2553 16.3539C21.2553 16.3539 23.0052 16.6702 24.6242 15.4923C25.2893 17.052 25.9271 18.6717 25.9598 18.8953C25.8617 19.1189 24.5915 22.1729 24.4661 22.3638C24.4007 22.4292 23.9592 22.5546 23.6375 22.6201C23.0979 22.7782 22.7817 22.8764 22.6509 22.9691C22.4274 23.16 21.408 25.9577 20.9337 27.3265C20.3613 27.4847 19.7889 27.8064 19.3746 28.4391C19.5981 28.2809 20.2959 28.1827 20.8083 28.1227C21.2553 28.09 22.6182 28.8208 22.9725 30.1896C22.9725 30.2224 22.9725 30.2224 22.9725 30.2551C23.0434 30.7568 22.8853 31.2367 22.6291 31.6185ZM19.6417 32.0002C19.9307 31.5858 19.898 30.8877 19.9307 30.6641C19.9634 30.4405 20.0233 30.026 20.2795 29.9661C20.5358 29.9006 21.1408 29.9988 21.1408 30.4405C21.1408 30.855 20.6938 30.9477 20.3777 31.2367C20.1487 31.4549 19.7017 31.9348 19.6417 32.0002ZM32.3269 25.9195C32.6431 24.2998 32.6758 22.8982 32.5831 21.753C33.8206 23.4054 34.5838 25.4123 34.8073 27.4792C34.84 27.7355 35.0907 27.9864 35.347 28.2427C35.5705 28.4336 35.8267 28.6899 35.8267 28.8481C35.8267 29.5788 35.7613 30.3096 35.6359 31.0459C35.6032 31.1386 35.3197 31.3022 35.0962 31.4276C34.78 31.5858 34.4911 31.7439 34.4311 32.0002C33.7334 34.4489 32.2343 36.614 30.2336 38.141C33.1882 35.0542 34.6165 29.9606 32.3269 25.9195ZM30.3263 38.4245C32.3923 36.8321 33.9841 34.607 34.6819 32.0929C34.7146 32.0002 34.9981 31.8366 35.1889 31.7112C35.505 31.553 35.8267 31.3622 35.8866 31.1058C36.012 30.3751 36.0774 29.6116 36.0774 28.8481C36.0774 28.5645 35.7885 28.2754 35.505 27.9919C35.347 27.801 35.0907 27.5774 35.0907 27.4192C34.8345 25.096 33.9133 22.9037 32.485 21.0876C31.8472 17.2701 29.3069 16.0922 29.2415 16.0594C29.3069 16.1576 30.9587 18.5408 29.8139 21.3385C28.6364 24.1689 25.6164 23.7272 25.3602 23.7544C25.1039 23.7544 24.1227 25.0251 22.8798 27.3811C22.7217 27.3156 22.0512 27.1575 21.288 27.2883C21.8604 25.6959 22.7217 23.4381 22.8798 23.2473C22.9452 23.1818 23.4195 23.0564 23.7411 22.9637C24.3462 22.8055 24.6297 22.7073 24.7278 22.5819C24.7932 22.4838 25.1094 21.753 25.4256 20.9895C25.7145 20.9895 26.445 20.924 26.5049 20.8913C26.5704 20.8259 27.1754 19.2716 27.1754 19.0807C27.1754 18.9226 25.9325 15.8358 25.4583 14.6579C25.6818 14.4016 25.9053 14.0853 26.1233 13.7362C32.6431 14.4397 37.7346 19.9751 37.7346 26.683C37.7346 31.8366 34.7146 36.3249 30.3263 38.4245Z" fill="#1B314F"/>
<path d="M21.6111 21.6063C22.2068 20.9194 21.8955 19.6368 20.7954 19.4168C21.0798 18.7621 21.4823 17.4473 21.4823 17.4473C21.4823 17.4473 18.2892 22.4542 18.0102 22.5508C17.7257 22.6474 17.4467 21.5473 17.4467 21.5473C16.851 23.8334 18.4502 24.1447 18.638 23.4256C19.5128 23.2002 21.0154 22.261 21.6111 21.6063Z" fill="#1B314F"/>
<path d="M18.8848 22.8245L20.5108 20.0393C20.5108 20.0393 21.45 20.5116 20.9777 21.2629C20.3874 22.1376 18.8848 22.8245 18.8848 22.8245Z" fill="#FFD923"/>
<path d="M39.0147 35.7258C38.5425 36.3537 38.0112 37.0084 37.3887 37.6363C41.4243 29.8709 37.5765 22.7656 37.4209 22.4866C37.7053 22.771 37.9844 23.0823 38.2366 23.3613C41.3331 26.8013 41.7087 31.9692 39.0147 35.7258Z" fill="#D82122"/>
<path d="M42.7712 25.7384C41.3598 21.9497 39.3581 18.7244 34.9468 15.8157C30.6912 12.9983 26.1189 13.2183 25.8666 13.2505C25.8344 13.2505 25.8022 13.2505 25.8022 13.2505C25.9579 13.1861 26.1135 13.1539 26.2691 13.1271C27.2405 12.8158 28.4909 12.5636 29.7466 12.408C33.0685 11.9304 36.4172 13.0573 38.7034 15.4723C38.7356 15.5045 38.7356 15.5045 38.7678 15.5367C41.3652 18.2897 42.7122 21.7296 42.7712 25.7384Z" fill="#D82122"/>
<path d="M33.9434 10.2401C29.2798 9.36535 26.2746 9.80004 24.1119 10.6158C24.0475 10.3635 23.8275 9.86444 23.6396 9.45659C22.9903 10.2401 22.298 11.1792 21.8633 11.7749C20.6719 12.5906 20.1729 13.3741 20.1729 13.3741C20.8598 11.0236 22.8668 9.27412 25.3086 8.83407C25.9955 8.71064 26.7468 8.64624 27.5626 8.64624C29.7199 8.67844 31.8772 9.20973 33.9434 10.2401Z" fill="#D82122"/>
<path d="M16.6952 16.2504C13.0353 16.127 14.2535 11.866 14.3179 11.6191C14.3179 11.6513 14.5647 14.9678 16.6952 16.2504Z" fill="#D82122"/>
<path d="M20.2964 8.58179C17.479 10.2722 18.0425 14.3079 18.0425 14.3079C15.3485 10.2132 20.0764 8.67838 20.2964 8.58179Z" fill="#D82122"/>
<path d="M15.6648 17.3775C15.8527 17.5331 16.0405 17.8176 15.8205 18.2254C15.697 18.4454 15.5092 18.4132 15.2248 18.2898C14.8491 18.102 12.5952 16.7872 10.5613 15.4402C12.8796 16.2559 15.2248 17.1306 15.6004 17.3185C15.6004 17.3185 15.6326 17.3507 15.6648 17.3775Z" fill="white"/>
</g>
<defs>
<clipPath id="clip0_22_3725">
<rect width="48" height="48" fill="white"/>
</clipPath>
</defs>
</svg>
