<svg width="48" height="48" viewBox="0 0 48 48" fill="none" xmlns="http://www.w3.org/2000/svg">
<path d="M24 48C37.2548 48 48 37.2548 48 24C48 10.7452 37.2548 0 24 0C10.7452 0 0 10.7452 0 24C0 37.2548 10.7452 48 24 48Z" fill="#A71435"/>
<path d="M16.1325 7.86914C19.8399 6.03034 24.0698 5.53262 28.1028 6.46063C32.1357 7.38865 35.7227 9.68508 38.2535 12.9593C40.7843 16.2336 42.1028 20.2835 41.9845 24.4201C41.8663 28.5568 40.3187 32.5248 37.605 35.6491C36.7125 33.7051 36.0285 31.6666 35.2635 29.6596L30.6435 17.5546C30.198 16.3276 29.4495 15.1486 28.287 14.5111C26.6593 13.7264 24.835 13.4434 23.046 13.6981C21.612 13.8586 20.115 14.3521 19.143 15.4831C18.219 16.5496 17.805 17.9206 17.28 19.2106L13.95 27.6526C12.8355 30.3286 11.895 33.1006 10.6845 35.7601C8.94091 33.877 7.6596 31.6137 6.94204 29.1496C5.70207 25.0845 5.94721 20.7111 7.6337 16.81C9.32018 12.9089 12.3382 9.73422 16.149 7.85264L16.1325 7.86764V7.86914Z" fill="white"/>
<path d="M22.7911 20.0702C23.1091 19.1147 24.3841 18.7952 25.2121 19.3382C25.6576 19.6727 25.8181 20.2457 26.0251 20.7557C28.0951 26.1707 30.1351 31.6187 32.1901 37.0517C32.4601 37.8317 32.8576 38.5802 33.0181 39.3917C32.8877 39.5306 32.737 39.6489 32.5711 39.7427C30.3237 40.9451 27.846 41.6551 25.3028 41.8255C22.7597 41.996 20.2094 41.6229 17.8216 40.7312C16.9291 40.3637 16.0066 40.0457 15.2251 39.4877C15.3046 38.7557 15.6706 38.1017 15.9421 37.4327C18.2356 31.6517 20.4811 25.8527 22.7911 20.0702V20.0702Z" fill="white"/>
</svg>
