<svg width="48" height="48" viewBox="0 0 48 48" fill="none" xmlns="http://www.w3.org/2000/svg">
<path d="M24 48C37.2548 48 48 37.2548 48 24C48 10.7452 37.2548 0 24 0C10.7452 0 0 10.7452 0 24C0 37.2548 10.7452 48 24 48Z" fill="#1F4C9F"/>
<path fill-rule="evenodd" clip-rule="evenodd" d="M9 28.875L24 9.75L39 28.875V35.25L24 16.125L9 35.25V28.875ZM24.75 30.75C23.7554 30.75 22.8016 30.3549 22.0983 29.6516C21.3951 28.9484 21 27.9946 21 27C21 26.0054 21.3951 25.0516 22.0983 24.3483C22.8016 23.6451 23.7554 23.25 24.75 23.25C25.7446 23.25 26.6984 23.6451 27.4016 24.3483C28.1049 25.0516 28.5 26.0054 28.5 27C28.5 27.9946 28.1049 28.9484 27.4016 29.6516C26.6984 30.3549 25.7446 30.75 24.75 30.75Z" fill="white"/>
</svg>
