<svg width="48" height="48" viewBox="0 0 48 48" fill="none" xmlns="http://www.w3.org/2000/svg">
<path d="M24 48C37.2548 48 48 37.2548 48 24C48 10.7452 37.2548 0 24 0C10.7452 0 0 10.7452 0 24C0 37.2548 10.7452 48 24 48Z" fill="#3C5BE0"/>
<path d="M40.5 24.0225V24.0345C40.4951 24.1542 40.4628 24.2712 40.4055 24.3765C40.1955 24.759 35.169 33.75 24.0015 33.75C12.834 33.75 7.8045 24.759 7.596 24.3765C7.53822 24.2714 7.50538 24.1544 7.5 24.0345V23.967L7.5015 23.9325C7.51023 23.8337 7.53772 23.7375 7.5825 23.649L7.5855 23.643L7.5945 23.625C7.8045 23.241 12.8325 14.25 24 14.25C35.1675 14.25 40.1955 23.2425 40.404 23.625L40.413 23.643L40.4175 23.6505C40.4616 23.7386 40.4885 23.8343 40.497 23.9325V24.0015L40.5 24.0225ZM38.835 24C37.9905 22.689 34.8165 18.3105 29.0625 16.5495C30.9151 17.8474 32.2182 19.7884 32.718 21.9945C33.1125 22.0845 33.396 22.4385 33.4035 22.8495C33.411 23.2605 33.141 23.6235 32.748 23.7285C32.355 23.8335 31.9455 23.6535 31.7505 23.2935C31.6562 23.1182 31.6225 22.9166 31.6548 22.7201C31.6871 22.5236 31.7835 22.3434 31.929 22.2075C31.188 18.873 28.446 16.2975 25.068 15.849C25.0425 15.8459 25.0174 15.8404 24.993 15.8325C24.331 15.797 23.6675 15.797 23.0055 15.8325C22.9811 15.8404 22.956 15.8459 22.9305 15.849C21.6142 16.0262 20.362 16.526 19.2855 17.304C19.2331 17.3413 19.1725 17.3656 19.1089 17.375C19.0453 17.3845 18.9803 17.3787 18.9193 17.3582C18.8583 17.3377 18.803 17.3031 18.758 17.2572C18.7129 17.2113 18.6793 17.1554 18.66 17.094C18.6338 17.0108 18.6343 16.9215 18.6614 16.8386C18.6886 16.7558 18.7411 16.6835 18.8115 16.632C18.8478 16.6057 18.8843 16.5797 18.921 16.554C13.176 18.3195 10.008 22.689 9.165 24C10.0005 25.3005 13.125 29.61 18.78 31.4025C16.9149 30.0407 15.6405 28.0178 15.2175 25.7475C14.8365 25.605 14.6025 25.218 14.6475 24.8085C14.6925 24.399 15.0075 24.0735 15.4095 24.021C15.8115 23.9685 16.1985 24.201 16.3455 24.5865C16.4165 24.7727 16.4238 24.9772 16.3663 25.168C16.3087 25.3587 16.1896 25.5251 16.0275 25.641C16.6725 28.956 19.2495 31.5315 22.5255 32.136C23.5078 32.2168 24.4952 32.2168 25.4775 32.136C26.6997 31.9064 27.8523 31.3971 28.845 30.648C28.9021 30.6036 28.9701 30.5753 29.0418 30.5661C29.1136 30.5569 29.1865 30.567 29.253 30.5955C29.3197 30.6251 29.3775 30.6718 29.4206 30.7307C29.4637 30.7897 29.4905 30.859 29.4984 30.9315C29.5063 31.0041 29.495 31.0775 29.4656 31.1444C29.4362 31.2113 29.3898 31.2692 29.331 31.3125L29.2005 31.41C34.8675 29.6205 37.998 25.302 38.835 24ZM31.23 24.0255C31.23 28.071 27.987 31.3635 24 31.3635C20.013 31.3635 16.77 28.071 16.77 24.0255C16.77 19.98 20.013 16.689 24 16.689C27.987 16.689 31.23 19.9785 31.23 24.0255ZM30.414 24.0255C30.414 20.4375 27.537 17.517 24 17.517C20.463 17.517 17.5845 20.436 17.5845 24.027C17.5845 27.618 20.463 30.534 24 30.534C27.537 30.534 30.414 27.615 30.414 24.0255ZM26.364 22.011C26.364 22.797 25.9755 23.529 25.329 23.961L25.974 27.9015C25.9888 27.9713 25.9876 28.0436 25.9703 28.1129C25.9531 28.1822 25.9203 28.2467 25.8745 28.3014C25.8287 28.3562 25.7711 28.3998 25.7059 28.429C25.6408 28.4582 25.5699 28.4722 25.4985 28.47H22.6185C22.5471 28.4722 22.4761 28.4581 22.411 28.4289C22.3458 28.3997 22.288 28.3561 22.2421 28.3014C22.1962 28.2467 22.1633 28.1823 22.1459 28.113C22.1285 28.0438 22.127 27.9714 22.1415 27.9015L22.7835 23.961C21.8655 23.3445 21.5055 22.1535 21.924 21.12C22.3425 20.0865 23.424 19.4985 24.504 19.7145C25.5855 19.932 26.364 20.8935 26.364 22.011ZM32.8845 25.0755C32.675 26.9546 31.8831 28.721 30.6195 30.1275C30.5719 30.182 30.5105 30.2228 30.4418 30.2456C30.3731 30.2683 30.2995 30.2723 30.2287 30.257C30.158 30.2416 30.0926 30.2076 30.0395 30.1585C29.9863 30.1093 29.9473 30.0468 29.9265 29.9775C29.9046 29.9076 29.9014 29.8331 29.9172 29.7615C29.933 29.6899 29.9672 29.6237 30.0165 29.5695C31.1644 28.2916 31.884 26.6867 32.0745 24.9795C32.0866 24.8716 32.1408 24.7729 32.2254 24.7049C32.31 24.6369 32.4181 24.6051 32.526 24.6165C32.751 24.6435 32.91 24.849 32.8845 25.0755ZM18.0795 17.7735C18.1583 17.8495 18.204 17.9535 18.2068 18.0629C18.2097 18.1724 18.1693 18.2785 18.0945 18.3585C16.9439 19.5901 16.1988 21.1451 15.96 22.8135C15.944 22.921 15.8862 23.0178 15.799 23.0827C15.7119 23.1477 15.6026 23.1755 15.495 23.16C15.3875 23.1426 15.2912 23.0836 15.2269 22.9958C15.1626 22.9079 15.1355 22.7982 15.1515 22.6905C15.415 20.8549 16.2355 19.1445 17.502 17.79C17.5387 17.7507 17.5828 17.7191 17.6319 17.697C17.6809 17.6749 17.7338 17.6628 17.7876 17.6614C17.8414 17.66 17.8949 17.6694 17.945 17.6889C17.9951 17.7084 18.0408 17.7376 18.0795 17.775V17.7735Z" fill="white"/>
</svg>
